<svg width="19" height="19" viewBox="0 0 19 19" fill="none" xmlns="http://www.w3.org/2000/svg">
<path d="M5.84973 6.66699C6.31917 6.66699 6.69934 7.04716 6.69934 7.5166C6.69922 7.98594 6.3191 8.36621 5.84973 8.36621L5.43274 8.36621C4.20827 8.36621 3.78409 8.37594 3.46204 8.47363C2.66858 8.71445 2.04752 9.33542 1.80676 10.1289C1.70913 10.4509 1.69934 10.8753 1.69934 12.0996V12.5166C1.69934 13.3045 1.70036 13.8531 1.72961 14.2822C1.75838 14.7037 1.81199 14.9484 1.88879 15.1338C2.14085 15.7421 2.62426 16.2255 3.23254 16.4775C3.41798 16.5543 3.66259 16.608 4.08411 16.6367C4.51325 16.666 5.06181 16.667 5.84973 16.667L12.5167 16.667C13.3047 16.667 13.8532 16.666 14.2823 16.6367C14.7035 16.608 14.9476 16.5542 15.1329 16.4775C15.7413 16.2255 16.2256 15.7421 16.4777 15.1338C16.5545 14.9484 16.6081 14.7037 16.6368 14.2822C16.6661 13.8531 16.6661 13.3044 16.6661 12.5166V12.0996C16.6661 10.8753 16.6573 10.4509 16.5597 10.1289C16.319 9.33542 15.6978 8.71449 14.9044 8.47363C14.5823 8.37594 14.1575 8.36621 12.9327 8.36621H12.5167C12.0474 8.36615 11.6663 7.9859 11.6661 7.5166C11.6661 7.0472 12.0473 6.66705 12.5167 6.66699H12.9327C14.0338 6.66699 14.7734 6.65733 15.3976 6.84668C16.7345 7.25228 17.7811 8.29879 18.1866 9.63574C18.3759 10.2598 18.3663 10.9989 18.3663 12.0996V12.5166C18.3663 13.2814 18.3673 13.898 18.3331 14.3984C18.2985 14.9064 18.2249 15.3572 18.048 15.7842C17.6234 16.809 16.8091 17.6233 15.7843 18.0479C15.3574 18.2247 14.9064 18.2983 14.3986 18.333C13.8982 18.3671 13.2814 18.3662 12.5167 18.3662L5.84973 18.3662C5.08485 18.3662 4.46837 18.3672 3.9679 18.333C3.45985 18.2983 3.00921 18.2247 2.58215 18.0479C1.55728 17.6233 0.743077 16.809 0.318481 15.7842C0.141602 15.3572 0.0680042 14.9064 0.0333252 14.3984C-0.000820215 13.898 0.000121886 13.2814 0.00012207 12.5166L0.00012207 12.0996C0.000120259 10.9989 -0.0094045 10.2598 0.17981 9.63574C0.585367 8.2988 1.63195 7.25229 2.96887 6.84668C3.59299 6.6574 4.33195 6.66699 5.43274 6.66699H5.84973ZM8.64661 0.19043C8.98043 -0.0819127 9.47307 -0.0620997 9.7843 0.249023L13.1173 3.58203C13.4493 3.91398 13.4493 4.45223 13.1173 4.78418C12.7854 5.11596 12.2471 5.11607 11.9152 4.78418L10.0333 2.90137L10.0333 11.6826C10.0333 12.1521 9.65218 12.5332 9.18274 12.5332C8.7135 12.533 8.33313 12.1519 8.33313 11.6826L8.33313 2.90137L6.45032 4.78418C6.11845 5.11569 5.58101 5.11569 5.24915 4.78418C4.91731 4.45223 4.91724 3.91394 5.24915 3.58203L8.58215 0.249023L8.64661 0.19043Z" fill="white" style="fill:white;fill-opacity:1;"/>
</svg>
