<svg width="18" height="18" viewBox="0 0 18 18" fill="none" xmlns="http://www.w3.org/2000/svg">
<path d="M8.52851 0.610918C8.83648 0.52132 9.16391 0.521275 9.47187 0.610919C9.67615 0.67043 9.84716 0.77304 10.007 0.890216C10.1613 1.00333 10.336 1.15419 10.5373 1.32674L11.4855 2.13924C11.6907 2.31507 11.7331 2.34776 11.7736 2.36971C11.8204 2.395 11.8711 2.41318 11.923 2.4244C11.968 2.43406 12.0217 2.43709 12.2912 2.43709L13.2004 2.43709C13.5059 2.43709 13.7689 2.43707 13.9846 2.45467C14.2067 2.47283 14.4282 2.51247 14.6408 2.62069C14.9583 2.78243 15.2173 3.04156 15.3791 3.35897C15.4873 3.57153 15.5269 3.79314 15.5451 4.01522C15.5627 4.23084 15.5627 4.49403 15.5627 4.7994L15.5627 5.70858C15.5627 5.97751 15.5658 6.0318 15.5754 6.07674C15.5866 6.12863 15.6048 6.17945 15.6301 6.22615C15.652 6.26671 15.6847 6.30915 15.8605 6.51424L16.673 7.46248C16.8456 7.66376 16.9964 7.83851 17.1096 7.99276C17.2267 8.15258 17.3293 8.32372 17.3889 8.52791C17.4785 8.83582 17.4784 9.16335 17.3889 9.47127C17.3294 9.67547 17.2267 9.84661 17.1096 10.0064C16.9965 10.1606 16.8455 10.3355 16.673 10.5367L15.8605 11.4849C15.6851 11.6896 15.652 11.7326 15.6301 11.773C15.6048 11.8197 15.5866 11.8706 15.5754 11.9224C15.5657 11.9674 15.5627 12.0213 15.5627 12.2906L15.5627 13.1998C15.5627 13.5051 15.5627 13.7683 15.5451 13.984C15.527 14.206 15.4872 14.4276 15.3791 14.6402C15.2174 14.9577 14.9582 15.2167 14.6408 15.3785C14.4282 15.4867 14.2067 15.5264 13.9846 15.5445C13.7689 15.5621 13.5058 15.5621 13.2004 15.5621L12.2912 15.5621C12.022 15.5621 11.968 15.5652 11.923 15.5748C11.8712 15.586 11.8203 15.6043 11.7736 15.6295C11.7331 15.6514 11.6905 15.6842 11.4855 15.8599L10.5373 16.6724C10.3361 16.8449 10.1612 16.9959 10.007 17.109C9.84718 17.2261 9.6761 17.3287 9.47187 17.3883C9.16384 17.4779 8.83653 17.4779 8.52851 17.3883C8.32417 17.3287 8.15325 17.2262 7.99335 17.109C7.83908 16.9958 7.66439 16.845 7.46308 16.6724L6.51484 15.8599C6.30971 15.6841 6.26731 15.6514 6.22675 15.6295C6.18001 15.6042 6.12927 15.586 6.07734 15.5748C6.03233 15.5651 5.97865 15.5621 5.70917 15.5621L4.7746 15.5621C4.4689 15.5621 4.20524 15.5621 3.98945 15.5445C3.7672 15.5263 3.5459 15.4869 3.3332 15.3785C3.01571 15.2167 2.75766 14.9577 2.59589 14.6402C2.4877 14.4276 2.44705 14.2061 2.4289 13.984C2.41133 13.7683 2.4123 13.5051 2.4123 13.1998L2.4123 12.2847C2.41229 12.0173 2.40915 11.9642 2.3996 11.9195C2.38854 11.868 2.36981 11.8175 2.34491 11.7711C2.3233 11.7309 2.29068 11.6883 2.11835 11.4849L1.30683 10.5269C1.13724 10.3268 0.989373 10.153 0.878118 9.99959C0.762838 9.8406 0.662281 9.67085 0.603704 9.46834C0.515432 9.1625 0.515371 8.83666 0.603704 8.53084C0.66232 8.32842 0.762856 8.15853 0.878118 7.99959C0.989375 7.84622 1.1373 7.67231 1.30683 7.47225L2.11835 6.51424C2.2908 6.31072 2.32331 6.26829 2.34492 6.2281C2.36977 6.18166 2.38858 6.13117 2.3996 6.07967C2.40909 6.03503 2.4123 5.98138 2.4123 5.71443L2.4123 4.79939C2.4123 4.49406 2.41131 4.23083 2.4289 4.01521C2.44707 3.79311 2.48767 3.57155 2.59589 3.35896C2.75768 3.04162 3.01581 2.78241 3.3332 2.62068C3.54583 2.51241 3.7673 2.47284 3.98945 2.45467C4.20523 2.43705 4.46894 2.43709 4.7746 2.43709L5.70917 2.43709C5.97865 2.43709 6.03233 2.43407 6.07734 2.42439C6.12924 2.41317 6.18004 2.39496 6.22675 2.36971C6.26724 2.34776 6.31007 2.31475 6.51484 2.13924L7.46308 1.32674C7.66432 1.15424 7.83913 1.0033 7.99335 0.890215C8.15318 0.77309 8.32429 0.670406 8.52851 0.610918ZM9.00019 11.2496C8.5861 11.2496 8.2504 11.5856 8.25019 11.9996C8.25019 12.4138 8.58597 12.7496 9.00019 12.7496C9.41434 12.7495 9.75019 12.4138 9.75019 11.9996C9.74998 11.5856 9.41421 11.2497 9.00019 11.2496ZM9.00019 5.43709C8.68966 5.43709 8.4379 5.68911 8.43769 5.99959L8.43769 9.74959C8.43769 10.0603 8.68953 10.3121 9.00019 10.3121C9.31078 10.312 9.56269 10.0602 9.56269 9.74959L9.56269 5.99959C9.56248 5.68915 9.31066 5.43717 9.00019 5.43709Z" fill="#34425D" style="fill:#34425D;fill:color(display-p3 0.2039 0.2588 0.3647);fill-opacity:1;"/>
</svg>
