<svg width="770" height="384" viewBox="0 0 770 384" fill="none" xmlns="http://www.w3.org/2000/svg">
<g opacity="0.2">
<path d="M963.496 -383.699C855.205 -276.011 814.256 -176.921 797.75 -103.02C783.993 -41.411 792.814 -22.2987 771.861 28.1721C726.387 137.694 599.389 253.531 499.004 218.192C449.555 200.784 445.297 154.106 395.191 83.4623C350.115 19.9145 269.543 -59.656 114.298 -117.607" stroke="url(#paint0_linear_103_146)" stroke-miterlimit="10"/>
<path d="M970.447 -366.609C862.585 -267.823 820.594 -173.14 802.563 -102.889C787.398 -43.7667 792.213 -24.7103 768.767 26.0964C719.581 132.678 600.763 242.527 502.148 211.639C451.352 195.733 442.695 151.737 389.755 82.5563C343.146 21.6504 262.462 -55.933 109.524 -113.752" stroke="url(#paint1_linear_103_146)" stroke-miterlimit="10"/>
<path d="M977.397 -349.521C869.968 -259.636 826.888 -169.321 807.37 -102.755C790.743 -46.0473 791.675 -27.1454 765.666 24.0237C712.98 127.675 601.963 231.735 505.28 205.094C453.049 190.699 440.163 149.386 384.31 81.6567C336.246 23.3795 255.374 -52.1988 104.738 -109.877" stroke="url(#paint2_linear_103_146)" stroke-miterlimit="10"/>
<path d="M984.348 -332.43C877.351 -251.446 833.12 -165.457 812.182 -102.607C794.062 -48.2645 791.211 -29.5928 762.554 21.9525C706.571 122.701 603.007 221.164 508.407 198.548C454.659 185.701 437.704 147.044 378.857 80.7576C329.436 25.0869 248.279 -48.4615 99.9588 -106.013" stroke="url(#paint3_linear_103_146)" stroke-miterlimit="10"/>
<path d="M991.298 -315.34C884.719 -243.257 839.271 -161.558 816.983 -102.485C797.335 -50.4179 790.796 -32.0356 759.466 19.8742C700.373 117.753 603.941 210.806 511.554 191.993C456.204 180.723 435.342 144.682 373.424 79.85C322.719 26.7609 241.2 -44.734 95.1977 -102.143" stroke="url(#paint4_linear_103_146)" stroke-miterlimit="10"/>
<path d="M998.248 -298.25C892.112 -235.073 845.338 -157.621 821.79 -102.351C800.551 -52.4999 790.48 -34.4817 756.363 17.799C694.335 112.861 604.75 200.669 514.692 185.445C457.669 175.803 433.065 142.301 367.98 78.947C316.071 28.4033 234.115 -41.0005 90.4136 -98.2913" stroke="url(#paint5_linear_103_146)" stroke-miterlimit="10"/>
<path d="M1005.2 -281.161C899.49 -226.897 851.29 -153.664 826.596 -102.217C803.7 -54.5154 790.22 -36.9072 753.264 15.7251C688.45 108.027 605.468 190.748 517.829 178.894C459.075 170.947 430.837 139.9 362.538 78.0462C309.491 30.0055 227.019 -37.2629 85.6375 -94.4261" stroke="url(#paint6_linear_103_146)" stroke-miterlimit="10"/>
<path d="M1012.14 -264.064C906.868 -218.695 857.11 -149.68 831.394 -102.079C806.755 -56.4685 790.009 -39.2976 750.156 13.655C682.697 103.261 606.099 181.038 520.956 172.348C460.418 166.17 428.689 137.459 357.085 77.1471C302.982 31.5643 219.946 -33.5261 80.8585 -90.562" stroke="url(#paint7_linear_103_146)" stroke-miterlimit="10"/>
<path d="M1019.1 -246.977C914.26 -210.511 862.804 -145.705 836.211 -101.947C809.721 -58.3734 789.903 -41.6549 747.062 11.5756C677.075 98.563 606.686 171.523 524.103 165.795C461.731 161.474 426.628 134.954 351.65 76.2399C296.527 33.0751 212.856 -29.8017 76.0671 -86.693" stroke="url(#paint8_linear_103_146)" stroke-miterlimit="10"/>
<path d="M1026.05 -229.892C921.638 -202.328 868.33 -141.751 841.015 -101.82C812.58 -60.2556 789.826 -43.9968 743.96 9.49434C671.56 93.9273 607.233 162.187 527.237 159.237C463.014 156.869 424.618 132.385 346.203 75.3297C290.122 34.5262 205.765 -26.0739 71.299 -82.8417" stroke="url(#paint9_linear_103_146)" stroke-miterlimit="10"/>
<path d="M1033 -212.791C929.011 -194.127 873.697 -137.817 845.822 -101.678C815.303 -62.1084 789.813 -46.2632 740.86 7.42617C666.13 89.3856 607.757 153.045 530.377 152.695C464.276 152.395 422.673 129.758 340.761 74.4339C283.768 35.9388 198.68 -22.3324 66.5236 -78.9652" stroke="url(#paint10_linear_103_146)" stroke-miterlimit="10"/>
<path d="M1039.95 -195.698C936.406 -185.945 878.894 -133.954 850.629 -101.544C817.882 -63.9917 789.843 -48.4783 737.76 5.35185C660.773 84.9131 608.267 144.059 533.514 146.143C465.53 148.041 420.778 127.047 335.318 73.533C277.446 37.2912 191.593 -18.6007 61.7457 -75.1041" stroke="url(#paint11_linear_103_146)" stroke-miterlimit="10"/>
<path d="M1046.91 -178.603C943.789 -177.756 883.931 -130.178 855.437 -101.408C820.306 -65.9375 789.94 -50.6468 734.659 3.27841C655.477 80.5176 608.786 135.224 536.649 139.593C466.796 143.822 418.928 124.253 329.874 72.6296C271.153 38.5894 184.507 -14.8665 56.9664 -71.2396" stroke="url(#paint12_linear_103_146)" stroke-miterlimit="10"/>
<path d="M1053.86 -161.509C951.171 -169.565 888.819 -126.512 860.244 -101.274C822.568 -67.9981 790.07 -52.7491 731.563 1.19956C650.234 76.1907 609.324 126.511 539.792 133.041C468.072 139.763 417.12 121.363 324.435 71.7243C264.879 39.8327 177.418 -11.1393 52.1923 -67.369" stroke="url(#paint13_linear_103_146)" stroke-miterlimit="10"/>
<path d="M1060.81 -144.415C958.553 -161.378 893.583 -122.979 865.061 -101.145C824.682 -70.2377 790.247 -54.7936 728.466 -0.87606C645.027 71.9402 609.906 117.943 542.933 126.487C469.393 135.868 415.34 118.38 318.992 70.8118C258.627 41.0112 170.338 -7.41027 47.4164 -63.5224" stroke="url(#paint14_linear_103_146)" stroke-miterlimit="10"/>
<path d="M1067.76 -127.319C965.925 -153.182 898.257 -119.596 869.859 -101.007C826.633 -72.7109 790.442 -56.765 725.356 -2.94907C639.846 67.7702 610.517 109.479 546.062 119.94C470.754 132.159 413.575 115.314 313.543 69.9217C252.366 42.1604 163.245 -3.66478 42.634 -59.6452" stroke="url(#paint15_linear_103_146)" stroke-miterlimit="10"/>
<path d="M1074.7 -110.219C973.309 -144.992 906.158 -107.726 874.655 -100.866C823.127 -89.6478 790.663 -58.6671 722.242 -5.01781C634.669 63.6566 611.195 101.109 549.2 113.388C472.199 128.647 411.822 112.129 308.099 69.0183C246.116 43.2545 156.158 0.0698511 37.8587 -55.7709" stroke="url(#paint16_linear_103_146)" stroke-miterlimit="10"/>
<path d="M1081.65 -93.1383C980.688 -136.814 909.799 -106.026 879.461 -100.747C826.289 -91.4934 790.923 -60.527 719.144 -7.11044C629.505 59.6071 611.949 92.8056 552.329 106.819C473.726 125.31 410.074 108.839 302.648 68.0949C239.852 44.2807 149.066 3.78429 33.0749 -51.9324" stroke="url(#paint17_linear_103_146)" stroke-miterlimit="10"/>
<path d="M1088.58 -76.0543C988.054 -128.638 913.648 -104.736 884.253 -100.626C829.384 -92.9512 791.192 -62.3171 716.033 -9.19116C624.342 55.6053 612.779 84.5571 555.463 100.259C475.373 122.199 408.327 105.459 297.206 67.1886C233.589 45.2801 141.981 7.51477 28.3027 -48.0658" stroke="url(#paint18_linear_103_146)" stroke-miterlimit="10"/>
<path d="M1095.51 -58.9728C995.42 -120.459 917.059 -107.744 889.043 -100.504C833.867 -86.2254 791.472 -64.0419 712.917 -11.2853C619.168 51.662 613.702 76.3511 558.586 93.6831C477.149 119.283 406.56 101.954 291.747 66.2568C227.293 46.2139 134.885 11.2278 23.5183 -44.227" stroke="url(#paint19_linear_103_146)" stroke-miterlimit="10"/>
<path d="M1102.44 -41.8916C1002.79 -112.28 922.026 -105.142 893.838 -100.381C835.886 -90.5906 791.773 -65.703 709.806 -13.3786C613.995 47.7744 614.741 68.1832 561.716 87.1105C479.093 116.606 404.79 98.3905 286.306 65.3403C220.994 47.1217 127.803 14.9491 18.7444 -40.3701" stroke="url(#paint20_linear_103_146)" stroke-miterlimit="10"/>
<path d="M1109.38 -24.8083C1010.15 -104.1 927.219 -102.628 898.63 -100.259C838.134 -95.2517 792.082 -67.3001 706.69 -15.4716C608.803 43.9401 615.891 60.0302 564.841 80.5385C481.209 114.126 402.995 94.7219 280.854 64.4182C214.671 48.001 120.712 18.6609 13.9632 -36.5236" stroke="url(#paint21_linear_103_146)" stroke-miterlimit="10"/>
</g>
<defs>
<linearGradient id="paint0_linear_103_146" x1="522.364" y1="-289.599" x2="713.183" y2="163.136" gradientUnits="userSpaceOnUse">
<stop stop-color="white" style="stop-color:white;stop-opacity:1;"/>
<stop offset="1" stop-color="white" stop-opacity="0.25" style="stop-color:white;stop-opacity:0.25;"/>
</linearGradient>
<linearGradient id="paint1_linear_103_146" x1="520.18" y1="-286.836" x2="707.47" y2="157.526" gradientUnits="userSpaceOnUse">
<stop stop-color="white" style="stop-color:white;stop-opacity:1;"/>
<stop offset="1" stop-color="white" stop-opacity="0.25" style="stop-color:white;stop-opacity:0.25;"/>
</linearGradient>
<linearGradient id="paint2_linear_103_146" x1="517.992" y1="-284.057" x2="701.784" y2="151.999" gradientUnits="userSpaceOnUse">
<stop stop-color="white" style="stop-color:white;stop-opacity:1;"/>
<stop offset="1" stop-color="white" stop-opacity="0.25" style="stop-color:white;stop-opacity:0.25;"/>
</linearGradient>
<linearGradient id="paint3_linear_103_146" x1="515.806" y1="-281.288" x2="696.138" y2="146.558" gradientUnits="userSpaceOnUse">
<stop stop-color="white" style="stop-color:white;stop-opacity:1;"/>
<stop offset="1" stop-color="white" stop-opacity="0.25" style="stop-color:white;stop-opacity:0.25;"/>
</linearGradient>
<linearGradient id="paint4_linear_103_146" x1="513.632" y1="-278.509" x2="690.538" y2="141.207" gradientUnits="userSpaceOnUse">
<stop stop-color="white" style="stop-color:white;stop-opacity:1;"/>
<stop offset="1" stop-color="white" stop-opacity="0.25" style="stop-color:white;stop-opacity:0.25;"/>
</linearGradient>
<linearGradient id="paint5_linear_103_146" x1="511.441" y1="-275.751" x2="684.972" y2="135.956" gradientUnits="userSpaceOnUse">
<stop stop-color="white" style="stop-color:white;stop-opacity:1;"/>
<stop offset="1" stop-color="white" stop-opacity="0.25" style="stop-color:white;stop-opacity:0.25;"/>
</linearGradient>
<linearGradient id="paint6_linear_103_146" x1="509.257" y1="-272.98" x2="679.449" y2="130.803" gradientUnits="userSpaceOnUse">
<stop stop-color="white" style="stop-color:white;stop-opacity:1;"/>
<stop offset="1" stop-color="white" stop-opacity="0.25" style="stop-color:white;stop-opacity:0.25;"/>
</linearGradient>
<linearGradient id="paint7_linear_103_146" x1="507.067" y1="-270.208" x2="673.962" y2="125.75" gradientUnits="userSpaceOnUse">
<stop stop-color="white" style="stop-color:white;stop-opacity:1;"/>
<stop offset="1" stop-color="white" stop-opacity="0.25" style="stop-color:white;stop-opacity:0.25;"/>
</linearGradient>
<linearGradient id="paint8_linear_103_146" x1="504.879" y1="-267.438" x2="668.52" y2="120.797" gradientUnits="userSpaceOnUse">
<stop stop-color="white" style="stop-color:white;stop-opacity:1;"/>
<stop offset="1" stop-color="white" stop-opacity="0.25" style="stop-color:white;stop-opacity:0.25;"/>
</linearGradient>
<linearGradient id="paint9_linear_103_146" x1="502.697" y1="-264.678" x2="663.124" y2="115.928" gradientUnits="userSpaceOnUse">
<stop stop-color="white" style="stop-color:white;stop-opacity:1;"/>
<stop offset="1" stop-color="white" stop-opacity="0.25" style="stop-color:white;stop-opacity:0.25;"/>
</linearGradient>
<linearGradient id="paint10_linear_103_146" x1="500.515" y1="-261.896" x2="657.767" y2="111.174" gradientUnits="userSpaceOnUse">
<stop stop-color="white" style="stop-color:white;stop-opacity:1;"/>
<stop offset="1" stop-color="white" stop-opacity="0.25" style="stop-color:white;stop-opacity:0.25;"/>
</linearGradient>
<linearGradient id="paint11_linear_103_146" x1="498.33" y1="-259.129" x2="652.448" y2="106.504" gradientUnits="userSpaceOnUse">
<stop stop-color="white" style="stop-color:white;stop-opacity:1;"/>
<stop offset="1" stop-color="white" stop-opacity="0.25" style="stop-color:white;stop-opacity:0.25;"/>
</linearGradient>
<linearGradient id="paint12_linear_103_146" x1="496.144" y1="-256.359" x2="647.166" y2="101.927" gradientUnits="userSpaceOnUse">
<stop stop-color="white" style="stop-color:white;stop-opacity:1;"/>
<stop offset="1" stop-color="white" stop-opacity="0.25" style="stop-color:white;stop-opacity:0.25;"/>
</linearGradient>
<linearGradient id="paint13_linear_103_146" x1="493.962" y1="-253.582" x2="641.921" y2="97.4339" gradientUnits="userSpaceOnUse">
<stop stop-color="white" style="stop-color:white;stop-opacity:1;"/>
<stop offset="1" stop-color="white" stop-opacity="0.25" style="stop-color:white;stop-opacity:0.25;"/>
</linearGradient>
<linearGradient id="paint14_linear_103_146" x1="491.775" y1="-250.828" x2="636.721" y2="93.0368" gradientUnits="userSpaceOnUse">
<stop stop-color="white" style="stop-color:white;stop-opacity:1;"/>
<stop offset="1" stop-color="white" stop-opacity="0.25" style="stop-color:white;stop-opacity:0.25;"/>
</linearGradient>
<linearGradient id="paint15_linear_103_146" x1="489.589" y1="-248.047" x2="631.549" y2="88.7301" gradientUnits="userSpaceOnUse">
<stop stop-color="white" style="stop-color:white;stop-opacity:1;"/>
<stop offset="1" stop-color="white" stop-opacity="0.25" style="stop-color:white;stop-opacity:0.25;"/>
</linearGradient>
<linearGradient id="paint16_linear_103_146" x1="487.401" y1="-245.265" x2="626.412" y2="84.514" gradientUnits="userSpaceOnUse">
<stop stop-color="white" style="stop-color:white;stop-opacity:1;"/>
<stop offset="1" stop-color="white" stop-opacity="0.25" style="stop-color:white;stop-opacity:0.25;"/>
</linearGradient>
<linearGradient id="paint17_linear_103_146" x1="485.209" y1="-242.518" x2="628.663" y2="97.8048" gradientUnits="userSpaceOnUse">
<stop stop-color="white" style="stop-color:white;stop-opacity:1;"/>
<stop offset="1" stop-color="white" stop-opacity="0.25" style="stop-color:white;stop-opacity:0.25;"/>
</linearGradient>
<linearGradient id="paint18_linear_103_146" x1="483.022" y1="-239.738" x2="632.97" y2="115.994" gradientUnits="userSpaceOnUse">
<stop stop-color="white" style="stop-color:white;stop-opacity:1;"/>
<stop offset="1" stop-color="white" stop-opacity="0.25" style="stop-color:white;stop-opacity:0.25;"/>
</linearGradient>
<linearGradient id="paint19_linear_103_146" x1="480.823" y1="-236.987" x2="637.275" y2="134.18" gradientUnits="userSpaceOnUse">
<stop stop-color="white" style="stop-color:white;stop-opacity:1;"/>
<stop offset="1" stop-color="white" stop-opacity="0.25" style="stop-color:white;stop-opacity:0.25;"/>
</linearGradient>
<linearGradient id="paint20_linear_103_146" x1="478.633" y1="-234.217" x2="641.581" y2="152.366" gradientUnits="userSpaceOnUse">
<stop stop-color="white" style="stop-color:white;stop-opacity:1;"/>
<stop offset="1" stop-color="white" stop-opacity="0.25" style="stop-color:white;stop-opacity:0.25;"/>
</linearGradient>
<linearGradient id="paint21_linear_103_146" x1="476.437" y1="-231.459" x2="645.888" y2="170.555" gradientUnits="userSpaceOnUse">
<stop stop-color="white" style="stop-color:white;stop-opacity:1;"/>
<stop offset="1" stop-color="white" stop-opacity="0.25" style="stop-color:white;stop-opacity:0.25;"/>
</linearGradient>
</defs>
</svg>
