<svg width="739" height="799" viewBox="0 0 739 799" fill="none" xmlns="http://www.w3.org/2000/svg">
<g opacity="0.2">
<path d="M-603.912 420.992C-415.493 389.666 -301.955 318.308 -231.588 254.92C-172.927 202.072 -168.074 176.192 -110.146 139.916C15.5616 61.1993 228.956 35.1218 305.691 143.897C343.491 197.48 314.013 248.159 313.914 356.497C313.826 453.954 338.318 593.472 454.6 765.058" stroke="url(#paint0_linear_103_263)" stroke-miterlimit="10"/>
<path d="M-598.614 398.531C-417.083 375.971 -305.678 309.862 -236.4 251.301C-178.105 202.009 -169.208 179.09 -108.496 144.278C18.8652 71.2504 219.581 45.35 297.737 148.305C337.997 201.332 314.949 252.463 318.798 361.363C322.188 457.237 348.234 594.809 462.259 764.587" stroke="url(#paint1_linear_103_263)" stroke-miterlimit="10"/>
<path d="M-593.317 376.073C-418.677 362.275 -309.326 301.41 -241.202 247.684C-183.167 201.914 -170.423 181.966 -106.836 148.642C21.9688 81.1392 210.537 55.4881 289.8 152.712C332.618 205.239 315.824 256.698 323.695 366.229C330.473 460.477 358.163 596.139 469.943 764.105" stroke="url(#paint2_linear_103_263)" stroke-miterlimit="10"/>
<path d="M-588.02 353.611C-420.269 348.576 -312.88 292.956 -246.001 244.048C-188.158 201.772 -171.724 184.8 -105.165 153.012C24.8972 90.8579 201.812 65.5139 281.867 157.125C327.354 209.171 316.631 260.872 328.601 371.1C338.651 463.673 368.102 597.472 477.613 763.63" stroke="url(#paint3_linear_103_263)" stroke-miterlimit="10"/>
<path d="M-582.721 331.153C-421.847 334.89 -316.326 284.526 -250.806 240.447C-193.055 201.598 -173.07 187.595 -103.523 157.372C27.6301 100.399 193.354 75.4028 273.908 161.531C322.17 213.131 317.327 264.995 333.48 375.965C346.709 466.836 378.017 598.802 485.268 763.135" stroke="url(#paint4_linear_103_263)" stroke-miterlimit="10"/>
<path d="M-577.424 308.693C-423.453 321.191 -319.657 276.118 -255.609 236.83C-197.841 201.394 -174.521 190.321 -101.864 161.739C30.2398 109.766 185.183 85.1561 265.963 165.938C317.11 217.09 317.922 269.076 338.373 380.833C354.675 469.982 387.944 600.132 492.935 762.675" stroke="url(#paint5_linear_103_263)" stroke-miterlimit="10"/>
<path d="M-572.127 286.234C-425.05 307.51 -322.858 267.771 -260.412 233.213C-202.512 201.169 -176.013 192.985 -100.208 166.103C32.7363 118.963 177.261 94.7555 258.018 170.348C312.156 221.026 318.451 273.143 343.267 385.698C362.542 473.118 397.883 601.464 500.602 762.196" stroke="url(#paint6_linear_103_263)" stroke-miterlimit="10"/>
<path d="M-566.817 263.774C-426.628 293.803 -325.904 259.495 -265.203 229.598C-207.041 200.95 -177.53 195.578 -98.5396 170.469C35.1477 127.994 169.582 104.203 250.084 174.761C307.324 224.927 318.87 277.191 348.173 390.569C370.305 476.248 407.8 602.782 508.272 761.721" stroke="url(#paint7_linear_103_263)" stroke-miterlimit="10"/>
<path d="M-561.532 241.311C-428.234 280.104 -328.828 251.318 -270.017 225.975C-211.445 200.746 -179.13 198.061 -96.893 174.834C37.4746 136.862 162.088 113.482 242.127 179.165C302.582 228.766 319.154 281.243 353.055 395.435C377.978 479.388 417.725 604.124 515.958 761.249" stroke="url(#paint8_linear_103_263)" stroke-miterlimit="10"/>
<path d="M-556.236 218.86C-429.826 266.417 -331.597 243.284 -274.823 222.367C-215.723 200.596 -180.748 200.507 -95.2388 179.207C39.7374 145.589 154.765 122.609 234.179 183.584C297.936 232.536 319.341 285.321 357.946 400.313C385.558 482.552 427.653 605.464 523.607 760.778" stroke="url(#paint9_linear_103_263)" stroke-miterlimit="10"/>
<path d="M-550.934 196.387C-431.401 252.714 -334.218 235.388 -279.62 218.742C-219.842 200.514 -182.378 202.83 -93.5769 183.566C41.9805 154.157 147.607 131.553 226.237 187.982C293.405 236.187 319.418 289.412 362.843 405.172C393.056 485.718 437.583 606.784 531.281 760.287" stroke="url(#paint10_linear_103_263)" stroke-miterlimit="10"/>
<path d="M-545.637 173.927C-433.011 239.017 -336.716 227.685 -284.423 215.125C-223.835 200.568 -184.013 205.07 -91.9207 187.93C44.2003 162.602 140.575 140.35 218.291 192.392C288.971 239.722 319.384 293.553 367.737 410.038C400.479 488.923 447.51 608.117 538.948 759.814" stroke="url(#paint11_linear_103_263)" stroke-miterlimit="10"/>
<path d="M-540.338 151.462C-434.604 225.319 -339.115 220.188 -289.226 211.504C-227.716 200.798 -185.682 207.213 -90.2613 192.294C46.4144 170.925 133.644 148.985 210.348 196.804C284.622 243.109 319.244 297.746 372.631 414.907C407.833 492.162 457.437 609.446 546.618 759.339" stroke="url(#paint12_linear_103_263)" stroke-miterlimit="10"/>
<path d="M-535.04 129.001C-436.195 211.622 -341.442 212.91 -294.029 207.887C-231.515 201.262 -187.339 209.265 -88.6122 196.66C48.6227 179.139 126.782 157.482 202.396 201.209C280.378 246.325 318.991 302.006 377.518 419.774C415.128 495.443 467.362 610.785 554.287 758.852" stroke="url(#paint13_linear_103_263)" stroke-miterlimit="10"/>
<path d="M-529.742 106.539C-437.789 197.927 -343.74 205.859 -298.845 204.267C-235.292 202.017 -189.001 211.224 -86.9591 201.023C50.8508 187.249 119.98 165.799 194.443 205.618C276.209 249.343 318.643 306.339 382.403 424.651C422.353 498.774 477.28 612.116 561.94 758.393" stroke="url(#paint14_linear_103_263)" stroke-miterlimit="10"/>
<path d="M-524.443 84.0743C-439.367 184.233 -346.053 199.026 -303.636 200.652C-239.072 203.128 -190.627 213.095 -85.291 205.393C53.1109 195.258 113.225 173.989 186.51 210.029C272.132 252.142 318.22 310.748 387.312 429.51C429.567 502.142 487.222 613.439 569.623 757.907" stroke="url(#paint15_linear_103_263)" stroke-miterlimit="10"/>
<path d="M-519.129 61.6157C-440.96 170.535 -345.508 181.202 -308.424 197.036C-247.768 222.937 -192.23 214.877 -83.616 209.762C55.4074 203.207 106.469 182.035 178.563 214.439C268.114 254.679 317.697 315.269 392.206 434.379C436.728 505.558 497.15 614.768 577.296 757.418" stroke="url(#paint16_linear_103_263)" stroke-miterlimit="10"/>
<path d="M-513.84 39.163C-442.561 156.846 -347.991 176.825 -313.239 193.427C-252.331 222.522 -193.844 216.58 -81.9746 214.135C57.7373 211.071 99.6844 189.948 170.614 218.863C264.139 256.968 317.097 319.884 397.093 439.264C443.858 509.046 507.07 616.116 584.953 756.968" stroke="url(#paint17_linear_103_263)" stroke-miterlimit="10"/>
<path d="M-508.535 16.7142C-444.15 143.166 -350.983 172.714 -318.04 189.824C-256.544 221.759 -195.418 218.202 -80.3126 218.502C60.1006 218.884 92.8622 197.746 162.667 223.271C260.207 258.938 316.429 324.588 401.985 444.124C450.966 512.558 516.997 617.441 592.619 756.479" stroke="url(#paint18_linear_103_263)" stroke-miterlimit="10"/>
<path d="M-503.231 -5.73156C-445.738 129.483 -356.642 173.303 -322.837 186.222C-256.244 211.647 -196.955 219.751 -78.6546 222.888C62.5178 226.645 85.9757 205.435 154.718 227.703C256.284 260.615 315.691 329.433 406.875 449.023C458.062 516.162 526.921 618.791 600.278 756.027" stroke="url(#paint19_linear_103_263)" stroke-miterlimit="10"/>
<path d="M-497.927 -28.1768C-447.326 115.8 -359.824 167.043 -327.639 182.615C-261.468 214.628 -198.468 221.219 -77.002 227.269C64.9738 234.35 78.9986 213.002 146.765 232.128C252.362 261.929 314.914 334.341 411.758 453.893C465.141 519.795 536.836 620.124 607.938 755.549" stroke="url(#paint20_linear_103_263)" stroke-miterlimit="10"/>
<path d="M-492.622 -50.6252C-448.91 102.117 -363.3 160.712 -332.439 179.012C-267.139 217.744 -199.942 222.618 -75.3435 231.654C67.4881 242.015 71.9186 220.474 138.818 236.558C248.408 262.917 314.086 339.375 416.648 458.778C472.224 523.474 546.754 621.473 615.599 755.088" stroke="url(#paint21_linear_103_263)" stroke-miterlimit="10"/>
</g>
<defs>
<linearGradient id="paint0_linear_103_263" x1="45.9148" y1="44.4839" x2="-87.6188" y2="644.359" gradientUnits="userSpaceOnUse">
<stop stop-color="white" style="stop-color:white;stop-opacity:1;"/>
<stop offset="1" stop-color="white" stop-opacity="0.25" style="stop-color:white;stop-opacity:0.25;"/>
</linearGradient>
<linearGradient id="paint1_linear_103_263" x1="47.7034" y1="54.355" x2="-83.3592" y2="643.132" gradientUnits="userSpaceOnUse">
<stop stop-color="white" style="stop-color:white;stop-opacity:1;"/>
<stop offset="1" stop-color="white" stop-opacity="0.25" style="stop-color:white;stop-opacity:0.25;"/>
</linearGradient>
<linearGradient id="paint2_linear_103_263" x1="49.5264" y1="64.1219" x2="-79.0855" y2="641.891" gradientUnits="userSpaceOnUse">
<stop stop-color="white" style="stop-color:white;stop-opacity:1;"/>
<stop offset="1" stop-color="white" stop-opacity="0.25" style="stop-color:white;stop-opacity:0.25;"/>
</linearGradient>
<linearGradient id="paint3_linear_103_263" x1="51.3687" y1="73.7717" x2="-74.8203" y2="640.658" gradientUnits="userSpaceOnUse">
<stop stop-color="white" style="stop-color:white;stop-opacity:1;"/>
<stop offset="1" stop-color="white" stop-opacity="0.25" style="stop-color:white;stop-opacity:0.25;"/>
</linearGradient>
<linearGradient id="paint4_linear_103_263" x1="53.2299" y1="83.2961" x2="-70.5601" y2="639.408" gradientUnits="userSpaceOnUse">
<stop stop-color="white" style="stop-color:white;stop-opacity:1;"/>
<stop offset="1" stop-color="white" stop-opacity="0.25" style="stop-color:white;stop-opacity:0.25;"/>
</linearGradient>
<linearGradient id="paint5_linear_103_263" x1="55.1274" y1="92.694" x2="-66.2992" y2="638.191" gradientUnits="userSpaceOnUse">
<stop stop-color="white" style="stop-color:white;stop-opacity:1;"/>
<stop offset="1" stop-color="white" stop-opacity="0.25" style="stop-color:white;stop-opacity:0.25;"/>
</linearGradient>
<linearGradient id="paint6_linear_103_263" x1="57.0522" y1="101.961" x2="-62.0358" y2="636.955" gradientUnits="userSpaceOnUse">
<stop stop-color="white" style="stop-color:white;stop-opacity:1;"/>
<stop offset="1" stop-color="white" stop-opacity="0.25" style="stop-color:white;stop-opacity:0.25;"/>
</linearGradient>
<linearGradient id="paint7_linear_103_263" x1="59.0132" y1="111.099" x2="-57.766" y2="635.723" gradientUnits="userSpaceOnUse">
<stop stop-color="white" style="stop-color:white;stop-opacity:1;"/>
<stop offset="1" stop-color="white" stop-opacity="0.25" style="stop-color:white;stop-opacity:0.25;"/>
</linearGradient>
<linearGradient id="paint8_linear_103_263" x1="60.9995" y1="120.103" x2="-53.5007" y2="634.49" gradientUnits="userSpaceOnUse">
<stop stop-color="white" style="stop-color:white;stop-opacity:1;"/>
<stop offset="1" stop-color="white" stop-opacity="0.25" style="stop-color:white;stop-opacity:0.25;"/>
</linearGradient>
<linearGradient id="paint9_linear_103_263" x1="63.0003" y1="128.987" x2="-49.2489" y2="633.264" gradientUnits="userSpaceOnUse">
<stop stop-color="white" style="stop-color:white;stop-opacity:1;"/>
<stop offset="1" stop-color="white" stop-opacity="0.25" style="stop-color:white;stop-opacity:0.25;"/>
</linearGradient>
<linearGradient id="paint10_linear_103_263" x1="65.044" y1="137.725" x2="-44.9815" y2="632.015" gradientUnits="userSpaceOnUse">
<stop stop-color="white" style="stop-color:white;stop-opacity:1;"/>
<stop offset="1" stop-color="white" stop-opacity="0.25" style="stop-color:white;stop-opacity:0.25;"/>
</linearGradient>
<linearGradient id="paint11_linear_103_263" x1="67.1097" y1="146.351" x2="-40.7212" y2="630.784" gradientUnits="userSpaceOnUse">
<stop stop-color="white" style="stop-color:white;stop-opacity:1;"/>
<stop offset="1" stop-color="white" stop-opacity="0.25" style="stop-color:white;stop-opacity:0.25;"/>
</linearGradient>
<linearGradient id="paint12_linear_103_263" x1="69.2039" y1="154.855" x2="-36.459" y2="629.551" gradientUnits="userSpaceOnUse">
<stop stop-color="white" style="stop-color:white;stop-opacity:1;"/>
<stop offset="1" stop-color="white" stop-opacity="0.25" style="stop-color:white;stop-opacity:0.25;"/>
</linearGradient>
<linearGradient id="paint13_linear_103_263" x1="71.3211" y1="163.246" x2="-32.1969" y2="628.307" gradientUnits="userSpaceOnUse">
<stop stop-color="white" style="stop-color:white;stop-opacity:1;"/>
<stop offset="1" stop-color="white" stop-opacity="0.25" style="stop-color:white;stop-opacity:0.25;"/>
</linearGradient>
<linearGradient id="paint14_linear_103_263" x1="73.4622" y1="171.507" x2="-27.9457" y2="627.091" gradientUnits="userSpaceOnUse">
<stop stop-color="white" style="stop-color:white;stop-opacity:1;"/>
<stop offset="1" stop-color="white" stop-opacity="0.25" style="stop-color:white;stop-opacity:0.25;"/>
</linearGradient>
<linearGradient id="paint15_linear_103_263" x1="75.6396" y1="179.654" x2="-23.6769" y2="625.845" gradientUnits="userSpaceOnUse">
<stop stop-color="white" style="stop-color:white;stop-opacity:1;"/>
<stop offset="1" stop-color="white" stop-opacity="0.25" style="stop-color:white;stop-opacity:0.25;"/>
</linearGradient>
<linearGradient id="paint16_linear_103_263" x1="77.8464" y1="187.684" x2="-19.4053" y2="624.601" gradientUnits="userSpaceOnUse">
<stop stop-color="white" style="stop-color:white;stop-opacity:1;"/>
<stop offset="1" stop-color="white" stop-opacity="0.25" style="stop-color:white;stop-opacity:0.25;"/>
</linearGradient>
<linearGradient id="paint17_linear_103_263" x1="85.1419" y1="172.489" x2="-15.22" y2="623.377" gradientUnits="userSpaceOnUse">
<stop stop-color="white" style="stop-color:white;stop-opacity:1;"/>
<stop offset="1" stop-color="white" stop-opacity="0.25" style="stop-color:white;stop-opacity:0.25;"/>
</linearGradient>
<linearGradient id="paint18_linear_103_263" x1="93.8729" y1="150.804" x2="-11.0351" y2="622.112" gradientUnits="userSpaceOnUse">
<stop stop-color="white" style="stop-color:white;stop-opacity:1;"/>
<stop offset="1" stop-color="white" stop-opacity="0.25" style="stop-color:white;stop-opacity:0.25;"/>
</linearGradient>
<linearGradient id="paint19_linear_103_263" x1="102.603" y1="129.122" x2="-6.85845" y2="620.884" gradientUnits="userSpaceOnUse">
<stop stop-color="white" style="stop-color:white;stop-opacity:1;"/>
<stop offset="1" stop-color="white" stop-opacity="0.25" style="stop-color:white;stop-opacity:0.25;"/>
</linearGradient>
<linearGradient id="paint20_linear_103_263" x1="111.332" y1="107.439" x2="-2.67784" y2="619.631" gradientUnits="userSpaceOnUse">
<stop stop-color="white" style="stop-color:white;stop-opacity:1;"/>
<stop offset="1" stop-color="white" stop-opacity="0.25" style="stop-color:white;stop-opacity:0.25;"/>
</linearGradient>
<linearGradient id="paint21_linear_103_263" x1="120.063" y1="85.7546" x2="1.50121" y2="618.394" gradientUnits="userSpaceOnUse">
<stop stop-color="white" style="stop-color:white;stop-opacity:1;"/>
<stop offset="1" stop-color="white" stop-opacity="0.25" style="stop-color:white;stop-opacity:0.25;"/>
</linearGradient>
</defs>
</svg>
