<svg width="476" height="490" viewBox="0 0 476 490" fill="none" xmlns="http://www.w3.org/2000/svg">
<g opacity="0.2">
<path d="M379.405 682.327C377.453 529.618 334.804 431.248 293.229 367.961C258.566 315.202 238.703 308.234 217.047 258.061C170.057 149.181 175.274 -22.6315 270.517 -70.1151C317.433 -93.5055 353.913 -64.0738 439.512 -50.8836C516.514 -39.0197 629.728 -41.4918 779.391 -112.629" stroke="url(#paint0_linear_103_394)" stroke-miterlimit="10"/>
<path d="M362.296 675.423C366.437 529.219 327.678 433.168 289.785 371.326C257.888 319.287 240.853 309.481 220.691 257.284C178.396 147.785 182.219 -13.9864 273.034 -63.2973C319.809 -88.6988 357.425 -64.2943 443.946 -54.1564C520.119 -45.2321 631.983 -49.1677 779.945 -118.74" stroke="url(#paint1_linear_103_394)" stroke-miterlimit="10"/>
<path d="M345.189 668.52C355.42 528.821 320.555 435.029 286.343 374.684C257.197 323.276 242.976 310.789 224.338 256.5C186.583 146.528 189.132 -5.61323 275.553 -56.4921C322.243 -83.9766 360.875 -64.4756 448.382 -57.4397C523.68 -51.3901 634.235 -56.8559 780.494 -124.873" stroke="url(#paint2_linear_103_394)" stroke-miterlimit="10"/>
<path d="M328.079 661.616C344.4 528.423 313.443 436.814 282.887 378.037C256.479 327.203 245.056 312.16 227.991 255.707C194.614 145.388 195.996 2.49405 278.077 -49.6907C324.711 -79.3425 364.269 -64.6103 452.823 -60.7294C527.194 -57.4681 636.49 -64.5516 781.046 -130.994" stroke="url(#paint3_linear_103_394)" stroke-miterlimit="10"/>
<path d="M310.971 654.711C333.393 528.014 306.362 438.518 279.458 381.398C255.747 331.051 247.1 313.562 231.633 254.936C202.482 144.381 202.783 10.3736 280.594 -42.8688C327.21 -74.7687 367.609 -64.663 457.256 -63.9989C530.667 -63.4562 638.74 -72.2286 781.581 -137.106" stroke="url(#paint4_linear_103_394)" stroke-miterlimit="10"/>
<path d="M293.863 647.807C322.371 527.626 299.313 440.133 276.017 384.756C255.004 334.81 249.076 315.038 235.282 254.153C210.196 143.451 209.499 18.0104 283.111 -36.0583C329.723 -70.2923 370.903 -64.6414 461.693 -67.279C534.115 -69.3732 640.991 -79.9149 782.145 -143.222" stroke="url(#paint5_linear_103_394)" stroke-miterlimit="10"/>
<path d="M276.754 640.903C311.365 527.233 292.328 441.653 272.575 388.114C254.259 338.474 250.998 316.539 238.928 253.371C217.763 142.59 216.123 25.431 285.632 -29.2469C332.231 -65.9026 374.178 -64.5698 466.128 -70.5602C537.544 -75.2129 643.246 -87.611 782.694 -149.342" stroke="url(#paint6_linear_103_394)" stroke-miterlimit="10"/>
<path d="M259.646 633.988C300.341 526.822 285.417 443.059 269.137 391.463C253.536 342.026 252.861 318.051 242.578 252.58C225.189 141.775 222.656 32.6417 288.156 -22.4446C334.727 -61.6134 377.426 -64.4128 470.569 -73.8499C540.955 -80.9716 645.486 -95.2908 783.245 -155.463" stroke="url(#paint7_linear_103_394)" stroke-miterlimit="10"/>
<path d="M242.533 627.093C289.319 526.433 278.6 444.38 265.689 394.83C252.839 345.482 254.628 319.616 246.224 251.806C232.476 141.008 229.079 39.686 290.671 -15.6244C337.184 -57.4023 380.659 -64.1492 475.003 -77.1208C544.363 -86.6581 647.746 -102.974 783.802 -161.596" stroke="url(#paint8_linear_103_394)" stroke-miterlimit="10"/>
<path d="M225.43 620.191C278.309 526.036 271.914 445.597 262.254 398.191C252.201 348.845 256.363 321.191 249.878 251.027C239.643 140.275 235.402 46.5776 293.198 -8.80938C339.598 -53.276 383.903 -63.8046 479.448 -80.3981C547.779 -92.2671 650.005 -110.66 784.355 -167.7" stroke="url(#paint9_linear_103_394)" stroke-miterlimit="10"/>
<path d="M208.31 613.281C267.288 525.622 265.355 446.712 258.807 401.544C251.635 352.09 257.999 322.759 253.521 250.24C246.683 139.538 241.602 53.316 295.71 -2.00182C341.932 -49.2555 387.142 -63.3725 483.878 -83.6823C551.187 -97.8124 652.249 -118.351 784.896 -173.827" stroke="url(#paint10_linear_103_394)" stroke-miterlimit="10"/>
<path d="M191.199 606.376C256.266 525.237 258.964 447.755 255.365 404.902C251.193 355.252 259.569 324.322 257.167 249.459C253.623 138.804 247.699 59.9368 298.231 4.81069C344.186 -45.3249 390.408 -62.8464 488.314 -86.9633C554.616 -103.293 654.502 -126.037 785.449 -179.945" stroke="url(#paint11_linear_103_394)" stroke-miterlimit="10"/>
<path d="M174.086 599.469C245.247 524.839 252.747 448.744 251.921 408.26C250.903 358.347 261.059 325.901 260.815 248.675C260.465 138.06 253.682 66.4588 300.753 11.621C346.334 -41.4792 393.702 -62.2301 492.751 -90.2435C558.063 -108.715 656.753 -133.724 786 -186.067" stroke="url(#paint12_linear_103_394)" stroke-miterlimit="10"/>
<path d="M156.974 592.563C234.228 524.438 246.712 449.702 248.479 411.619C250.808 361.405 262.478 327.457 264.462 247.898C267.221 137.307 259.563 72.9088 303.27 18.4375C348.36 -37.7381 397.036 -61.5167 497.187 -93.5193C561.538 -114.086 659.011 -141.409 786.544 -192.189" stroke="url(#paint13_linear_103_394)" stroke-miterlimit="10"/>
<path d="M139.862 585.657C223.211 524.04 240.859 450.664 245.033 414.987C250.945 364.482 263.822 329.008 268.108 247.119C273.897 136.527 265.31 79.2907 305.789 25.2555C350.238 -34.0786 400.416 -60.719 501.63 -96.7918C565.043 -119.395 661.261 -149.088 787.106 -198.295" stroke="url(#paint14_linear_103_394)" stroke-miterlimit="10"/>
<path d="M122.747 578.749C212.196 523.63 235.177 451.665 241.595 418.336C251.363 367.604 265.102 330.52 271.761 246.329C280.498 135.709 270.963 85.6199 308.312 32.0585C351.954 -30.5195 403.846 -59.8526 506.062 -100.085C568.576 -124.691 663.508 -156.788 787.65 -204.428" stroke="url(#paint15_linear_103_394)" stroke-miterlimit="10"/>
<path d="M105.639 571.83C201.176 523.231 221.155 449.077 238.155 421.682C265.964 376.875 266.314 332.002 275.414 245.533C287.055 134.855 276.501 91.9323 310.833 38.8717C353.47 -27.0381 407.353 -58.894 510.5 -103.366C572.14 -129.939 665.759 -164.475 788.192 -210.553" stroke="url(#paint16_linear_103_394)" stroke-miterlimit="10"/>
<path d="M88.5393 564.931C190.168 522.838 217.4 450.508 234.725 425.051C265.089 380.43 267.469 333.483 279.073 244.765C293.557 133.966 281.938 98.253 313.372 45.691C354.803 -23.6187 410.932 -57.8598 514.957 -106.637C575.763 -135.151 668.028 -172.153 788.766 -216.659" stroke="url(#paint17_linear_103_394)" stroke-miterlimit="10"/>
<path d="M71.4468 558.018C179.17 522.436 213.795 452.374 231.303 428.407C263.981 383.667 268.567 334.922 282.732 243.98C300.023 133.044 287.283 104.59 315.901 52.5064C355.891 -20.2711 414.575 -56.7613 519.395 -109.914C579.404 -140.344 670.281 -179.837 789.311 -222.777" stroke="url(#paint18_linear_103_394)" stroke-miterlimit="10"/>
<path d="M54.3571 551.106C168.171 522.032 213.581 456.916 227.881 431.761C256.032 382.205 269.611 336.324 286.405 243.2C306.456 132.073 292.533 110.964 318.449 59.326C356.748 -16.9666 418.321 -55.5909 523.864 -113.185C583.116 -145.515 672.554 -187.517 789.884 -228.885" stroke="url(#paint19_linear_103_394)" stroke-miterlimit="10"/>
<path d="M37.2675 544.195C157.171 521.629 208.255 458.672 224.456 435.118C257.761 386.692 270.594 337.696 290.073 242.423C312.848 131.064 297.675 117.395 320.99 66.1481C357.318 -13.7074 422.112 -54.3814 528.309 -116.454C586.849 -150.67 674.811 -195.192 790.438 -234.997" stroke="url(#paint20_linear_103_394)" stroke-miterlimit="10"/>
<path d="M20.1754 537.284C146.171 521.224 202.836 460.651 221.032 438.474C259.543 391.551 271.525 339.03 293.744 241.643C319.215 130.005 302.728 123.896 323.534 72.966C357.626 -10.4615 425.996 -53.1169 532.766 -119.727C590.618 -155.822 677.081 -202.867 791.003 -241.107" stroke="url(#paint21_linear_103_394)" stroke-miterlimit="10"/>
</g>
<defs>
<linearGradient id="paint0_linear_103_394" x1="618.87" y1="300.085" x2="160.979" y2="121.992" gradientUnits="userSpaceOnUse">
<stop stop-color="white" style="stop-color:white;stop-opacity:1;"/>
<stop offset="1" stop-color="white" stop-opacity="0.25" style="stop-color:white;stop-opacity:0.25;"/>
</linearGradient>
<linearGradient id="paint1_linear_103_394" x1="618.406" y1="296.593" x2="168.983" y2="121.795" gradientUnits="userSpaceOnUse">
<stop stop-color="white" style="stop-color:white;stop-opacity:1;"/>
<stop offset="1" stop-color="white" stop-opacity="0.25" style="stop-color:white;stop-opacity:0.25;"/>
</linearGradient>
<linearGradient id="paint2_linear_103_394" x1="617.933" y1="293.089" x2="176.909" y2="121.558" gradientUnits="userSpaceOnUse">
<stop stop-color="white" style="stop-color:white;stop-opacity:1;"/>
<stop offset="1" stop-color="white" stop-opacity="0.25" style="stop-color:white;stop-opacity:0.25;"/>
</linearGradient>
<linearGradient id="paint3_linear_103_394" x1="617.466" y1="289.591" x2="184.746" y2="121.292" gradientUnits="userSpaceOnUse">
<stop stop-color="white" style="stop-color:white;stop-opacity:1;"/>
<stop offset="1" stop-color="white" stop-opacity="0.25" style="stop-color:white;stop-opacity:0.25;"/>
</linearGradient>
<linearGradient id="paint4_linear_103_394" x1="616.985" y1="286.096" x2="192.486" y2="120.995" gradientUnits="userSpaceOnUse">
<stop stop-color="white" style="stop-color:white;stop-opacity:1;"/>
<stop offset="1" stop-color="white" stop-opacity="0.25" style="stop-color:white;stop-opacity:0.25;"/>
</linearGradient>
<linearGradient id="paint5_linear_103_394" x1="616.529" y1="282.603" x2="200.13" y2="120.653" gradientUnits="userSpaceOnUse">
<stop stop-color="white" style="stop-color:white;stop-opacity:1;"/>
<stop offset="1" stop-color="white" stop-opacity="0.25" style="stop-color:white;stop-opacity:0.25;"/>
</linearGradient>
<linearGradient id="paint6_linear_103_394" x1="616.059" y1="279.106" x2="207.674" y2="120.274" gradientUnits="userSpaceOnUse">
<stop stop-color="white" style="stop-color:white;stop-opacity:1;"/>
<stop offset="1" stop-color="white" stop-opacity="0.25" style="stop-color:white;stop-opacity:0.25;"/>
</linearGradient>
<linearGradient id="paint7_linear_103_394" x1="615.593" y1="275.604" x2="215.121" y2="119.851" gradientUnits="userSpaceOnUse">
<stop stop-color="white" style="stop-color:white;stop-opacity:1;"/>
<stop offset="1" stop-color="white" stop-opacity="0.25" style="stop-color:white;stop-opacity:0.25;"/>
</linearGradient>
<linearGradient id="paint8_linear_103_394" x1="615.126" y1="272.105" x2="222.465" y2="119.391" gradientUnits="userSpaceOnUse">
<stop stop-color="white" style="stop-color:white;stop-opacity:1;"/>
<stop offset="1" stop-color="white" stop-opacity="0.25" style="stop-color:white;stop-opacity:0.25;"/>
</linearGradient>
<linearGradient id="paint9_linear_103_394" x1="614.663" y1="268.618" x2="229.717" y2="118.905" gradientUnits="userSpaceOnUse">
<stop stop-color="white" style="stop-color:white;stop-opacity:1;"/>
<stop offset="1" stop-color="white" stop-opacity="0.25" style="stop-color:white;stop-opacity:0.25;"/>
</linearGradient>
<linearGradient id="paint10_linear_103_394" x1="614.184" y1="265.115" x2="236.859" y2="118.367" gradientUnits="userSpaceOnUse">
<stop stop-color="white" style="stop-color:white;stop-opacity:1;"/>
<stop offset="1" stop-color="white" stop-opacity="0.25" style="stop-color:white;stop-opacity:0.25;"/>
</linearGradient>
<linearGradient id="paint11_linear_103_394" x1="613.719" y1="261.62" x2="243.914" y2="117.798" gradientUnits="userSpaceOnUse">
<stop stop-color="white" style="stop-color:white;stop-opacity:1;"/>
<stop offset="1" stop-color="white" stop-opacity="0.25" style="stop-color:white;stop-opacity:0.25;"/>
</linearGradient>
<linearGradient id="paint12_linear_103_394" x1="613.251" y1="258.122" x2="250.877" y2="117.192" gradientUnits="userSpaceOnUse">
<stop stop-color="white" style="stop-color:white;stop-opacity:1;"/>
<stop offset="1" stop-color="white" stop-opacity="0.25" style="stop-color:white;stop-opacity:0.25;"/>
</linearGradient>
<linearGradient id="paint13_linear_103_394" x1="612.776" y1="254.623" x2="257.754" y2="116.553" gradientUnits="userSpaceOnUse">
<stop stop-color="white" style="stop-color:white;stop-opacity:1;"/>
<stop offset="1" stop-color="white" stop-opacity="0.25" style="stop-color:white;stop-opacity:0.25;"/>
</linearGradient>
<linearGradient id="paint14_linear_103_394" x1="612.321" y1="251.136" x2="264.531" y2="115.879" gradientUnits="userSpaceOnUse">
<stop stop-color="white" style="stop-color:white;stop-opacity:1;"/>
<stop offset="1" stop-color="white" stop-opacity="0.25" style="stop-color:white;stop-opacity:0.25;"/>
</linearGradient>
<linearGradient id="paint15_linear_103_394" x1="611.845" y1="247.631" x2="271.223" y2="115.163" gradientUnits="userSpaceOnUse">
<stop stop-color="white" style="stop-color:white;stop-opacity:1;"/>
<stop offset="1" stop-color="white" stop-opacity="0.25" style="stop-color:white;stop-opacity:0.25;"/>
</linearGradient>
<linearGradient id="paint16_linear_103_394" x1="611.371" y1="244.123" x2="277.825" y2="114.409" gradientUnits="userSpaceOnUse">
<stop stop-color="white" style="stop-color:white;stop-opacity:1;"/>
<stop offset="1" stop-color="white" stop-opacity="0.25" style="stop-color:white;stop-opacity:0.25;"/>
</linearGradient>
<linearGradient id="paint17_linear_103_394" x1="610.924" y1="240.637" x2="266.715" y2="106.775" gradientUnits="userSpaceOnUse">
<stop stop-color="white" style="stop-color:white;stop-opacity:1;"/>
<stop offset="1" stop-color="white" stop-opacity="0.25" style="stop-color:white;stop-opacity:0.25;"/>
</linearGradient>
<linearGradient id="paint18_linear_103_394" x1="610.45" y1="237.132" x2="250.658" y2="97.2077" gradientUnits="userSpaceOnUse">
<stop stop-color="white" style="stop-color:white;stop-opacity:1;"/>
<stop offset="1" stop-color="white" stop-opacity="0.25" style="stop-color:white;stop-opacity:0.25;"/>
</linearGradient>
<linearGradient id="paint19_linear_103_394" x1="610.006" y1="233.638" x2="234.603" y2="87.6409" gradientUnits="userSpaceOnUse">
<stop stop-color="white" style="stop-color:white;stop-opacity:1;"/>
<stop offset="1" stop-color="white" stop-opacity="0.25" style="stop-color:white;stop-opacity:0.25;"/>
</linearGradient>
<linearGradient id="paint20_linear_103_394" x1="609.541" y1="230.138" x2="218.547" y2="78.0755" gradientUnits="userSpaceOnUse">
<stop stop-color="white" style="stop-color:white;stop-opacity:1;"/>
<stop offset="1" stop-color="white" stop-opacity="0.25" style="stop-color:white;stop-opacity:0.25;"/>
</linearGradient>
<linearGradient id="paint21_linear_103_394" x1="609.089" y1="226.641" x2="202.49" y2="68.5084" gradientUnits="userSpaceOnUse">
<stop stop-color="white" style="stop-color:white;stop-opacity:1;"/>
<stop offset="1" stop-color="white" stop-opacity="0.25" style="stop-color:white;stop-opacity:0.25;"/>
</linearGradient>
</defs>
</svg>
