<svg width="885" height="606" viewBox="0 0 885 606" fill="none" xmlns="http://www.w3.org/2000/svg">
<g opacity="0.2" clip-path="url(#clip0_103_208)">
<path d="M923.991 365.113C794.251 284.545 688.392 267.526 612.677 268.49C549.556 269.297 532.99 282.285 479.05 273.522C361.997 254.505 220.018 157.61 231.279 51.7841C236.826 -0.345889 281.268 -15.2427 338.467 -80.2764C389.921 -138.78 448.788 -235.517 469.414 -399.937" stroke="url(#paint0_linear_103_208)" stroke-miterlimit="10"/>
<path d="M908.962 375.814C787.984 293.613 686.174 274.565 613.659 273.204C552.633 272.068 535.199 281.144 480.357 270.033C365.311 246.726 231.042 156.412 238.379 53.3332C242.156 0.239642 282.973 -18.3209 338.096 -85.7753C386.626 -145.162 443.533 -241.55 464.562 -403.694" stroke="url(#paint1_linear_103_208)" stroke-miterlimit="10"/>
<path d="M893.935 386.514C781.718 302.683 683.908 281.569 614.636 277.912C555.623 274.797 537.444 280.059 481.659 266.538C368.658 239.15 241.82 155.093 245.471 54.8737C247.445 0.731316 284.678 -21.3259 337.717 -91.2807C383.354 -151.478 438.267 -247.587 459.689 -407.459" stroke="url(#paint2_linear_103_208)" stroke-miterlimit="10"/>
<path d="M878.905 397.216C775.449 311.755 681.583 288.524 615.601 282.629C558.545 277.516 539.719 279.044 482.958 263.033C372.022 231.768 252.347 153.674 252.561 56.4083C252.679 1.14639 286.391 -24.2584 337.336 -96.7943C380.123 -157.711 432.995 -253.63 454.828 -411.219" stroke="url(#paint3_linear_103_208)" stroke-miterlimit="10"/>
<path d="M863.876 407.916C769.179 320.811 679.207 295.408 616.587 287.329C561.395 280.205 542 278.077 484.269 259.549C375.409 224.596 262.642 152.196 259.665 57.9607C257.879 1.50243 288.145 -27.1012 336.967 -102.29C376.947 -163.862 427.737 -259.659 449.965 -414.961" stroke="url(#paint4_linear_103_208)" stroke-miterlimit="10"/>
<path d="M848.848 418.616C762.918 329.89 676.773 302.218 617.565 292.037C564.161 282.855 544.308 277.206 485.573 256.052C378.778 217.594 272.693 150.648 266.759 59.5053C263.004 1.79476 289.936 -29.8659 336.592 -107.795C373.817 -169.953 422.472 -265.694 445.115 -418.729" stroke="url(#paint5_linear_103_208)" stroke-miterlimit="10"/>
<path d="M833.819 429.317C756.661 338.953 674.293 308.923 618.542 296.746C566.848 285.455 546.608 276.395 486.877 252.558C382.127 210.753 282.513 149.061 273.856 61.0485C268.054 2.04432 291.76 -32.5873 336.215 -113.299C370.742 -175.987 417.2 -271.738 440.253 -422.486" stroke="url(#paint6_linear_103_208)" stroke-miterlimit="10"/>
<path d="M818.782 440.012C750.38 348.022 671.758 315.503 619.513 301.446C569.453 287.978 548.886 275.638 488.176 249.057C385.438 204.057 292.107 147.438 280.948 62.5836C273.012 2.25064 293.641 -35.2393 335.833 -118.813C367.725 -181.962 411.934 -277.76 435.392 -426.246" stroke="url(#paint7_linear_103_208)" stroke-miterlimit="10"/>
<path d="M803.757 450.721C744.119 357.101 669.201 321.96 620.494 306.164C571.989 290.425 551.155 274.992 489.486 245.568C388.715 197.503 301.501 145.818 288.049 64.1362C277.884 2.44687 295.604 -37.8223 335.464 -124.31C364.768 -187.895 406.677 -283.801 430.523 -430.017" stroke="url(#paint8_linear_103_208)" stroke-miterlimit="10"/>
<path d="M788.733 461.418C737.856 366.166 666.627 328.249 621.477 310.868C574.48 292.774 553.416 274.378 490.797 242.069C391.955 191.069 310.712 144.199 295.153 65.6749C282.66 2.63414 297.64 -40.3701 335.095 -129.82C361.88 -193.794 401.415 -289.843 425.677 -433.77" stroke="url(#paint9_linear_103_208)" stroke-miterlimit="10"/>
<path d="M773.694 472.124C731.574 375.231 664.036 334.377 622.446 315.578C576.91 294.997 555.619 273.843 492.095 238.576C395.124 184.739 319.729 142.602 302.242 67.2232C287.305 2.83146 299.748 -42.8674 334.713 -135.322C359.042 -199.651 396.142 -295.874 420.805 -437.524" stroke="url(#paint10_linear_103_208)" stroke-miterlimit="10"/>
<path d="M758.663 482.826C725.316 384.311 661.473 340.324 623.424 320.287C579.337 297.072 557.781 273.362 493.4 235.082C398.242 178.496 328.591 141.028 309.34 68.7664C291.831 3.04789 301.95 -45.3366 334.335 -140.826C356.269 -205.491 390.878 -301.911 415.947 -441.283" stroke="url(#paint11_linear_103_208)" stroke-miterlimit="10"/>
<path d="M743.629 493.53C719.048 393.383 658.96 346.096 624.399 324.997C581.789 298.983 559.914 272.956 494.703 231.586C401.299 172.329 337.308 139.498 316.437 70.3078C296.228 3.30866 304.243 -47.7807 333.96 -146.332C353.556 -211.315 385.612 -307.946 411.085 -445.044" stroke="url(#paint12_linear_103_208)" stroke-miterlimit="10"/>
<path d="M728.597 504.232C712.778 402.453 656.518 351.697 625.376 329.705C584.315 300.709 561.989 272.599 496.013 228.094C404.302 166.231 345.91 138.014 323.536 71.8565C300.472 3.61513 306.639 -50.2057 333.588 -151.834C350.901 -217.135 380.352 -313.986 406.219 -448.798" stroke="url(#paint13_linear_103_208)" stroke-miterlimit="10"/>
<path d="M713.564 514.934C706.512 411.523 654.178 357.147 626.36 334.422C586.981 302.25 564.02 272.3 497.319 224.602C407.238 160.184 354.382 136.607 330.638 73.4038C304.566 4.00306 309.13 -52.6249 333.222 -157.34C348.314 -222.947 375.092 -320.017 401.375 -452.559" stroke="url(#paint14_linear_103_208)" stroke-miterlimit="10"/>
<path d="M698.529 525.638C700.236 420.585 651.963 362.474 627.331 339.123C589.838 303.579 565.983 272.035 498.62 221.099C410.102 154.182 362.758 135.251 337.729 74.9406C308.49 4.47291 311.707 -55.0491 332.833 -162.848C345.753 -228.775 369.813 -326.056 396.501 -456.319" stroke="url(#paint15_linear_103_208)" stroke-miterlimit="10"/>
<path d="M683.488 536.331C693.967 429.657 642.232 372.898 628.299 343.823C605.511 296.266 567.885 271.812 499.915 217.592C412.913 148.196 371.06 133.982 344.828 76.4839C312.24 5.06973 314.403 -57.4883 332.458 -168.354C343.249 -234.604 364.546 -332.091 391.63 -460.074" stroke="url(#paint16_linear_103_208)" stroke-miterlimit="10"/>
<path d="M668.467 547.026C687.709 438.722 641.417 376.833 629.291 348.527C608.036 298.917 569.754 271.636 501.238 214.095C415.663 142.238 379.313 132.803 351.942 78.0154C315.838 5.7876 317.201 -59.9475 332.1 -173.871C340.807 -240.463 359.298 -338.137 386.793 -463.844" stroke="url(#paint17_linear_103_208)" stroke-miterlimit="10"/>
<path d="M653.44 557.709C681.45 447.773 641.049 380.875 630.277 353.218C610.168 301.593 571.558 271.486 502.546 210.589C418.368 136.293 387.531 131.711 359.047 79.5538C319.246 6.67298 320.089 -62.4264 331.729 -179.375C338.391 -246.327 354.035 -344.172 381.931 -467.597" stroke="url(#paint18_linear_103_208)" stroke-miterlimit="10"/>
<path d="M638.415 568.39C675.188 456.825 644.761 383.501 631.261 357.907C604.655 307.505 573.301 271.361 503.866 207.074C421.013 130.349 395.729 130.718 366.165 81.078C322.492 7.72965 323.092 -64.9532 331.378 -184.902C336.032 -252.24 348.787 -350.222 377.093 -471.369" stroke="url(#paint19_linear_103_208)" stroke-miterlimit="10"/>
<path d="M623.391 579.07C668.926 465.878 643.373 388.934 632.246 362.602C609.368 308.464 574.987 271.271 505.186 203.565C423.605 124.419 403.917 129.847 373.282 82.6097C325.545 9.00419 326.152 -67.4964 331.016 -190.408C333.697 -258.16 343.535 -356.256 372.24 -475.126" stroke="url(#paint20_linear_103_208)" stroke-miterlimit="10"/>
<path d="M608.364 589.753C662.663 474.929 642.124 394.566 633.231 367.293C614.422 309.578 576.612 271.204 506.505 200.05C426.139 118.484 412.115 129.088 380.397 84.1362C328.446 10.492 329.308 -70.0884 330.657 -195.925C331.385 -264.11 338.289 -362.301 367.395 -478.892" stroke="url(#paint21_linear_103_208)" stroke-miterlimit="10"/>
</g>
<defs>
<linearGradient id="paint0_linear_103_208" x1="730.792" y1="-42.4729" x2="334.197" y2="247.517" gradientUnits="userSpaceOnUse">
<stop stop-color="white" style="stop-color:white;stop-opacity:1;"/>
<stop offset="1" stop-color="white" stop-opacity="0.25" style="stop-color:white;stop-opacity:0.25;"/>
</linearGradient>
<linearGradient id="paint1_linear_103_208" x1="727.6" y1="-43.9618" x2="338.341" y2="240.666" gradientUnits="userSpaceOnUse">
<stop stop-color="white" style="stop-color:white;stop-opacity:1;"/>
<stop offset="1" stop-color="white" stop-opacity="0.25" style="stop-color:white;stop-opacity:0.25;"/>
</linearGradient>
<linearGradient id="paint2_linear_103_208" x1="724.392" y1="-45.4502" x2="342.409" y2="233.859" gradientUnits="userSpaceOnUse">
<stop stop-color="white" style="stop-color:white;stop-opacity:1;"/>
<stop offset="1" stop-color="white" stop-opacity="0.25" style="stop-color:white;stop-opacity:0.25;"/>
</linearGradient>
<linearGradient id="paint3_linear_103_208" x1="721.193" y1="-46.9393" x2="346.403" y2="227.111" gradientUnits="userSpaceOnUse">
<stop stop-color="white" style="stop-color:white;stop-opacity:1;"/>
<stop offset="1" stop-color="white" stop-opacity="0.25" style="stop-color:white;stop-opacity:0.25;"/>
</linearGradient>
<linearGradient id="paint4_linear_103_208" x1="717.988" y1="-48.4155" x2="350.319" y2="220.429" gradientUnits="userSpaceOnUse">
<stop stop-color="white" style="stop-color:white;stop-opacity:1;"/>
<stop offset="1" stop-color="white" stop-opacity="0.25" style="stop-color:white;stop-opacity:0.25;"/>
</linearGradient>
<linearGradient id="paint5_linear_103_208" x1="714.8" y1="-49.912" x2="354.147" y2="213.803" gradientUnits="userSpaceOnUse">
<stop stop-color="white" style="stop-color:white;stop-opacity:1;"/>
<stop offset="1" stop-color="white" stop-opacity="0.25" style="stop-color:white;stop-opacity:0.25;"/>
</linearGradient>
<linearGradient id="paint6_linear_103_208" x1="711.6" y1="-51.3985" x2="357.89" y2="207.242" gradientUnits="userSpaceOnUse">
<stop stop-color="white" style="stop-color:white;stop-opacity:1;"/>
<stop offset="1" stop-color="white" stop-opacity="0.25" style="stop-color:white;stop-opacity:0.25;"/>
</linearGradient>
<linearGradient id="paint7_linear_103_208" x1="708.398" y1="-52.8914" x2="361.542" y2="200.738" gradientUnits="userSpaceOnUse">
<stop stop-color="white" style="stop-color:white;stop-opacity:1;"/>
<stop offset="1" stop-color="white" stop-opacity="0.25" style="stop-color:white;stop-opacity:0.25;"/>
</linearGradient>
<linearGradient id="paint8_linear_103_208" x1="705.198" y1="-54.3816" x2="365.108" y2="194.302" gradientUnits="userSpaceOnUse">
<stop stop-color="white" style="stop-color:white;stop-opacity:1;"/>
<stop offset="1" stop-color="white" stop-opacity="0.25" style="stop-color:white;stop-opacity:0.25;"/>
</linearGradient>
<linearGradient id="paint9_linear_103_208" x1="702.01" y1="-55.869" x2="368.603" y2="187.929" gradientUnits="userSpaceOnUse">
<stop stop-color="white" style="stop-color:white;stop-opacity:1;"/>
<stop offset="1" stop-color="white" stop-opacity="0.25" style="stop-color:white;stop-opacity:0.25;"/>
</linearGradient>
<linearGradient id="paint10_linear_103_208" x1="698.8" y1="-57.3513" x2="371.995" y2="181.621" gradientUnits="userSpaceOnUse">
<stop stop-color="white" style="stop-color:white;stop-opacity:1;"/>
<stop offset="1" stop-color="white" stop-opacity="0.25" style="stop-color:white;stop-opacity:0.25;"/>
</linearGradient>
<linearGradient id="paint11_linear_103_208" x1="695.604" y1="-58.8407" x2="375.314" y2="175.368" gradientUnits="userSpaceOnUse">
<stop stop-color="white" style="stop-color:white;stop-opacity:1;"/>
<stop offset="1" stop-color="white" stop-opacity="0.25" style="stop-color:white;stop-opacity:0.25;"/>
</linearGradient>
<linearGradient id="paint12_linear_103_208" x1="692.405" y1="-60.3296" x2="378.551" y2="169.174" gradientUnits="userSpaceOnUse">
<stop stop-color="white" style="stop-color:white;stop-opacity:1;"/>
<stop offset="1" stop-color="white" stop-opacity="0.25" style="stop-color:white;stop-opacity:0.25;"/>
</linearGradient>
<linearGradient id="paint13_linear_103_208" x1="689.2" y1="-61.8131" x2="381.715" y2="163.035" gradientUnits="userSpaceOnUse">
<stop stop-color="white" style="stop-color:white;stop-opacity:1;"/>
<stop offset="1" stop-color="white" stop-opacity="0.25" style="stop-color:white;stop-opacity:0.25;"/>
</linearGradient>
<linearGradient id="paint14_linear_103_208" x1="686.017" y1="-63.3071" x2="384.795" y2="156.962" gradientUnits="userSpaceOnUse">
<stop stop-color="white" style="stop-color:white;stop-opacity:1;"/>
<stop offset="1" stop-color="white" stop-opacity="0.25" style="stop-color:white;stop-opacity:0.25;"/>
</linearGradient>
<linearGradient id="paint15_linear_103_208" x1="682.807" y1="-64.793" x2="387.795" y2="150.937" gradientUnits="userSpaceOnUse">
<stop stop-color="white" style="stop-color:white;stop-opacity:1;"/>
<stop offset="1" stop-color="white" stop-opacity="0.25" style="stop-color:white;stop-opacity:0.25;"/>
</linearGradient>
<linearGradient id="paint16_linear_103_208" x1="679.596" y1="-66.281" x2="390.714" y2="144.967" gradientUnits="userSpaceOnUse">
<stop stop-color="white" style="stop-color:white;stop-opacity:1;"/>
<stop offset="1" stop-color="white" stop-opacity="0.25" style="stop-color:white;stop-opacity:0.25;"/>
</linearGradient>
<linearGradient id="paint17_linear_103_208" x1="676.417" y1="-67.7814" x2="378.299" y2="150.219" gradientUnits="userSpaceOnUse">
<stop stop-color="white" style="stop-color:white;stop-opacity:1;"/>
<stop offset="1" stop-color="white" stop-opacity="0.25" style="stop-color:white;stop-opacity:0.25;"/>
</linearGradient>
<linearGradient id="paint18_linear_103_208" x1="673.209" y1="-69.2693" x2="361.592" y2="158.601" gradientUnits="userSpaceOnUse">
<stop stop-color="white" style="stop-color:white;stop-opacity:1;"/>
<stop offset="1" stop-color="white" stop-opacity="0.25" style="stop-color:white;stop-opacity:0.25;"/>
</linearGradient>
<linearGradient id="paint19_linear_103_208" x1="670.025" y1="-70.7757" x2="344.886" y2="166.98" gradientUnits="userSpaceOnUse">
<stop stop-color="white" style="stop-color:white;stop-opacity:1;"/>
<stop offset="1" stop-color="white" stop-opacity="0.25" style="stop-color:white;stop-opacity:0.25;"/>
</linearGradient>
<linearGradient id="paint20_linear_103_208" x1="666.825" y1="-72.2687" x2="328.182" y2="175.36" gradientUnits="userSpaceOnUse">
<stop stop-color="white" style="stop-color:white;stop-opacity:1;"/>
<stop offset="1" stop-color="white" stop-opacity="0.25" style="stop-color:white;stop-opacity:0.25;"/>
</linearGradient>
<linearGradient id="paint21_linear_103_208" x1="663.635" y1="-73.7698" x2="311.475" y2="183.742" gradientUnits="userSpaceOnUse">
<stop stop-color="white" style="stop-color:white;stop-opacity:1;"/>
<stop offset="1" stop-color="white" stop-opacity="0.25" style="stop-color:white;stop-opacity:0.25;"/>
</linearGradient>
<clipPath id="clip0_103_208">
<rect width="1009.86" height="491.619" fill="white" style="fill:white;fill-opacity:1;" transform="matrix(-0.5905 -0.807038 -0.805895 0.592058 992.514 314.933)"/>
</clipPath>
</defs>
</svg>
