<svg width="587" height="490" viewBox="0 0 587 490" fill="none" xmlns="http://www.w3.org/2000/svg">
<g opacity="0.2">
<path d="M-764.424 234.396C-574.804 211.435 -458.221 145.169 -385.119 84.9554C-324.178 34.7538 -318.184 9.11449 -258.708 -24.5636C-129.642 -97.6428 84.6968 -114.255 156.546 -2.19223C191.939 53.0106 160.247 102.336 155.356 210.563C150.957 307.922 169.254 448.386 277.831 624.948" stroke="url(#paint0_linear_103_455)" stroke-miterlimit="10"/>
<path d="M-758.138 212.191C-575.787 197.683 -461.566 136.567 -389.766 81.1272C-329.348 34.4626 -319.446 11.959 -257.253 -20.1329C-126.786 -87.4553 74.8788 -104.452 148.405 1.85921C186.279 56.6155 160.992 106.677 160.02 215.641C159.165 311.571 179.1 450.16 285.504 624.816" stroke="url(#paint1_linear_103_455)" stroke-miterlimit="10"/>
<path d="M-751.853 189.989C-576.773 183.93 -464.837 127.962 -394.404 77.3015C-334.401 34.1432 -320.787 14.7788 -255.788 -15.6997C-124.123 -77.4388 65.395 -94.7235 140.279 5.91182C180.732 60.2807 161.679 110.947 164.697 220.718C167.299 315.174 188.961 451.929 293.202 624.675" stroke="url(#paint2_linear_103_455)" stroke-miterlimit="10"/>
<path d="M-745.567 167.784C-577.758 170.174 -468.013 119.359 -399.037 73.4569C-339.38 33.7807 -322.212 17.5527 -254.312 -11.2602C-121.627 -67.6001 56.2351 -85.0936 132.16 9.96886C175.3 63.9763 162.301 115.152 169.382 225.801C175.327 318.729 198.832 453.7 300.885 624.539" stroke="url(#paint3_linear_103_455)" stroke-miterlimit="10"/>
<path d="M-739.281 145.581C-578.729 156.431 -471.083 110.784 -403.678 69.6467C-344.264 33.3909 -323.681 20.2851 -252.864 -6.83161C-119.319 -57.9474 47.3479 -75.5884 124.013 14.019C169.946 67.7034 162.813 119.302 174.042 230.878C183.238 322.245 208.678 455.467 308.555 624.383" stroke="url(#paint4_linear_103_455)" stroke-miterlimit="10"/>
<path d="M-732.995 123.378C-579.728 142.675 -474.039 102.237 -408.316 65.8206C-349.037 32.9748 -325.25 22.944 -251.4 -2.39531C-117.126 -48.4747 38.7532 -66.2062 115.881 18.0699C164.716 71.434 163.227 123.405 178.715 235.958C191.057 325.74 218.536 457.235 316.234 624.263" stroke="url(#paint5_linear_103_455)" stroke-miterlimit="10"/>
<path d="M-726.71 101.176C-580.718 128.937 -476.868 93.7572 -412.954 61.9947C-353.694 32.5439 -326.859 25.5395 -249.939 2.03733C-115.039 -39.1759 30.415 -56.9666 107.749 22.124C159.592 75.1473 163.576 127.492 183.389 241.035C198.777 329.222 228.407 459.005 323.915 624.124" stroke="url(#paint6_linear_103_455)" stroke-miterlimit="10"/>
<path d="M-720.411 78.9722C-581.688 115.174 -479.545 85.3545 -417.581 58.1718C-358.209 32.1247 -328.489 28.0631 -248.465 6.47313C-113.03 -30.047 22.3258 -47.8683 99.6278 26.1814C154.593 78.8309 163.815 131.555 188.074 246.118C206.395 332.692 238.256 460.76 331.598 623.988" stroke="url(#paint7_linear_103_455)" stroke-miterlimit="10"/>
<path d="M-714.138 56.7653C-582.687 101.416 -482.104 77.0565 -422.23 54.3394C-362.599 31.7259 -330.197 30.4731 -247.013 10.9066C-111.097 -21.0844 14.4286 -38.9299 91.4836 30.2294C149.685 82.4568 163.92 135.615 192.736 251.195C213.922 336.168 248.111 462.54 339.298 623.856" stroke="url(#paint8_linear_103_455)" stroke-miterlimit="10"/>
<path d="M-707.854 34.5706C-583.672 87.6725 -484.515 68.9076 -426.871 50.5226C-366.867 31.3865 -331.922 32.8454 -245.554 15.3485C-109.223 -12.2665 6.70848 -30.1357 83.348 34.2929C144.877 86.0168 163.926 139.698 197.407 256.284C221.353 339.664 257.97 464.318 346.96 623.725" stroke="url(#paint9_linear_103_455)" stroke-miterlimit="10"/>
<path d="M-701.563 12.3541C-584.639 73.9132 -486.784 60.9026 -431.503 46.6881C-370.978 31.1224 -333.652 35.0936 -244.086 19.7761C-107.361 -3.60754 -0.838173 -21.5166 75.2192 38.335C140.189 89.4636 163.822 143.787 202.084 261.355C228.705 343.159 267.833 466.076 354.649 623.574" stroke="url(#paint10_linear_103_455)" stroke-miterlimit="10"/>
<path d="M-695.277 -9.85022C-585.641 60.1579 -488.939 53.0974 -436.142 42.8621C-374.969 31.0002 -335.385 37.2588 -242.625 24.2091C-105.517 4.92781 -8.25218 -13.04 67.0858 42.3896C135.603 92.799 163.605 147.923 206.758 266.433C235.979 346.689 277.691 467.847 362.329 623.44" stroke="url(#paint11_linear_103_455)" stroke-miterlimit="10"/>
<path d="M-688.99 -32.058C-586.627 46.4034 -491.005 45.5017 -440.78 39.0329C-378.857 31.0582 -337.148 39.3265 -241.16 28.6429C-103.673 13.3406 -15.5585 -4.71969 58.9553 46.4451C131.108 95.9902 163.28 152.106 211.431 271.513C243.182 350.25 287.55 469.614 370.012 623.304" stroke="url(#paint12_linear_103_455)" stroke-miterlimit="10"/>
<path d="M-682.704 -54.2633C-587.61 32.6493 -493.007 38.128 -445.419 35.2065C-382.672 31.354 -338.893 41.3026 -239.706 33.077C-101.83 21.6437 -22.7894 3.46514 50.8159 50.4946C126.727 99.0163 162.838 156.35 216.098 276.592C250.324 353.85 297.406 471.39 377.695 623.158" stroke="url(#paint13_linear_103_455)" stroke-miterlimit="10"/>
<path d="M-676.418 -76.4685C-588.597 18.8977 -494.991 30.9815 -450.07 31.3771C-386.479 31.9406 -340.64 43.186 -238.247 37.5094C-99.9631 29.8446 -29.9529 11.4733 42.6761 54.5478C122.427 101.846 162.299 160.664 220.763 281.68C257.395 357.498 307.255 473.158 385.362 623.037" stroke="url(#paint14_linear_103_455)" stroke-miterlimit="10"/>
<path d="M-670.13 -98.6769C-589.567 5.14707 -496.999 24.0534 -454.696 27.5544C-390.305 32.8831 -342.348 44.9841 -236.774 41.9492C-98.0595 37.9462 -37.0636 19.3569 34.5552 58.603C118.231 104.463 161.682 165.05 225.452 286.752C264.453 361.182 317.129 474.92 393.058 622.892" stroke="url(#paint15_linear_103_455)" stroke-miterlimit="10"/>
<path d="M-663.828 -120.879C-590.553 -8.60807 -495.666 6.2708 -459.319 23.7292C-399.868 52.2886 -344.028 46.6933 -235.294 46.3874C-96.1169 45.9886 -44.1689 27.0962 26.4213 62.6579C114.104 106.82 160.959 169.543 230.126 291.832C271.456 364.911 326.988 476.687 400.746 622.743" stroke="url(#paint16_linear_103_455)" stroke-miterlimit="10"/>
<path d="M-657.551 -143.075C-591.547 -22.3544 -497.953 1.78842 -463.97 19.9109C-404.408 51.6725 -345.716 48.3228 -233.848 50.8288C-94.1371 53.9482 -51.2966 34.7007 18.2841 66.7254C110.032 108.93 160.155 174.127 234.793 296.929C278.424 368.711 336.839 478.473 408.415 622.632" stroke="url(#paint17_linear_103_455)" stroke-miterlimit="10"/>
<path d="M-651.258 -165.268C-592.529 -36.0914 -500.761 -2.4508 -468.606 16.0994C-408.584 50.7233 -347.36 49.8742 -232.381 55.2653C-92.1217 61.8575 -58.4572 42.1902 10.1503 70.7772C106.017 110.724 159.28 178.797 239.465 302.001C285.371 372.534 346.697 480.235 416.095 622.482" stroke="url(#paint18_linear_103_455)" stroke-miterlimit="10"/>
<path d="M-644.966 -187.457C-593.51 -49.8317 -506.44 -2.1135 -473.239 12.2884C-407.837 40.634 -348.964 51.353 -230.918 59.72C-90.0502 69.7185 -65.677 49.567 2.01336 74.854C102.024 112.226 158.329 183.605 244.133 307.111C292.3 376.448 356.552 482.024 423.766 622.369" stroke="url(#paint19_linear_103_455)" stroke-miterlimit="10"/>
<path d="M-638.674 -209.645C-594.491 -63.5715 -509.342 -8.50711 -477.878 8.47289C-413.187 43.3813 -350.541 52.7533 -229.461 64.1701C-87.9374 77.5244 -72.9821 56.8181 -6.1278 78.923C98.0478 113.365 157.335 188.474 248.795 312.193C299.211 380.391 366.398 483.793 431.441 622.231" stroke="url(#paint20_linear_103_455)" stroke-miterlimit="10"/>
<path d="M-632.382 -231.837C-595.469 -77.3107 -512.534 -14.9863 -482.513 4.66091C-418.991 46.244 -352.075 54.0849 -227.998 68.6243C-85.7646 85.2927 -80.3856 63.969 -14.2629 82.9962C94.0538 114.177 156.285 193.466 253.465 317.289C306.124 384.38 376.247 485.579 439.114 622.109" stroke="url(#paint21_linear_103_455)" stroke-miterlimit="10"/>
</g>
<defs>
<linearGradient id="paint0_linear_103_455" x1="-98.5791" y1="-112.999" x2="-258.517" y2="480.382" gradientUnits="userSpaceOnUse">
<stop stop-color="white" style="stop-color:white;stop-opacity:1;"/>
<stop offset="1" stop-color="white" stop-opacity="0.25" style="stop-color:white;stop-opacity:0.25;"/>
</linearGradient>
<linearGradient id="paint1_linear_103_455" x1="-97.2289" y1="-103.059" x2="-254.208" y2="479.344" gradientUnits="userSpaceOnUse">
<stop stop-color="white" style="stop-color:white;stop-opacity:1;"/>
<stop offset="1" stop-color="white" stop-opacity="0.25" style="stop-color:white;stop-opacity:0.25;"/>
</linearGradient>
<linearGradient id="paint2_linear_103_455" x1="-95.8398" y1="-93.2204" x2="-249.883" y2="478.294" gradientUnits="userSpaceOnUse">
<stop stop-color="white" style="stop-color:white;stop-opacity:1;"/>
<stop offset="1" stop-color="white" stop-opacity="0.25" style="stop-color:white;stop-opacity:0.25;"/>
</linearGradient>
<linearGradient id="paint3_linear_103_455" x1="-94.4261" y1="-83.4987" x2="-245.568" y2="477.251" gradientUnits="userSpaceOnUse">
<stop stop-color="white" style="stop-color:white;stop-opacity:1;"/>
<stop offset="1" stop-color="white" stop-opacity="0.25" style="stop-color:white;stop-opacity:0.25;"/>
</linearGradient>
<linearGradient id="paint4_linear_103_455" x1="-92.9881" y1="-73.9012" x2="-241.256" y2="476.191" gradientUnits="userSpaceOnUse">
<stop stop-color="white" style="stop-color:white;stop-opacity:1;"/>
<stop offset="1" stop-color="white" stop-opacity="0.25" style="stop-color:white;stop-opacity:0.25;"/>
</linearGradient>
<linearGradient id="paint5_linear_103_455" x1="-91.5081" y1="-64.4287" x2="-236.946" y2="475.163" gradientUnits="userSpaceOnUse">
<stop stop-color="white" style="stop-color:white;stop-opacity:1;"/>
<stop offset="1" stop-color="white" stop-opacity="0.25" style="stop-color:white;stop-opacity:0.25;"/>
</linearGradient>
<linearGradient id="paint6_linear_103_455" x1="-89.9951" y1="-55.0854" x2="-232.632" y2="474.116" gradientUnits="userSpaceOnUse">
<stop stop-color="white" style="stop-color:white;stop-opacity:1;"/>
<stop offset="1" stop-color="white" stop-opacity="0.25" style="stop-color:white;stop-opacity:0.25;"/>
</linearGradient>
<linearGradient id="paint7_linear_103_455" x1="-88.4402" y1="-45.8699" x2="-228.312" y2="473.075" gradientUnits="userSpaceOnUse">
<stop stop-color="white" style="stop-color:white;stop-opacity:1;"/>
<stop offset="1" stop-color="white" stop-opacity="0.25" style="stop-color:white;stop-opacity:0.25;"/>
</linearGradient>
<linearGradient id="paint8_linear_103_455" x1="-86.8542" y1="-36.787" x2="-223.996" y2="472.032" gradientUnits="userSpaceOnUse">
<stop stop-color="white" style="stop-color:white;stop-opacity:1;"/>
<stop offset="1" stop-color="white" stop-opacity="0.25" style="stop-color:white;stop-opacity:0.25;"/>
</linearGradient>
<linearGradient id="paint9_linear_103_455" x1="-85.2484" y1="-27.8232" x2="-219.694" y2="470.995" gradientUnits="userSpaceOnUse">
<stop stop-color="white" style="stop-color:white;stop-opacity:1;"/>
<stop offset="1" stop-color="white" stop-opacity="0.25" style="stop-color:white;stop-opacity:0.25;"/>
</linearGradient>
<linearGradient id="paint10_linear_103_455" x1="-83.5931" y1="-19.0029" x2="-215.376" y2="469.936" gradientUnits="userSpaceOnUse">
<stop stop-color="white" style="stop-color:white;stop-opacity:1;"/>
<stop offset="1" stop-color="white" stop-opacity="0.25" style="stop-color:white;stop-opacity:0.25;"/>
</linearGradient>
<linearGradient id="paint11_linear_103_455" x1="-81.911" y1="-10.294" x2="-211.065" y2="468.895" gradientUnits="userSpaceOnUse">
<stop stop-color="white" style="stop-color:white;stop-opacity:1;"/>
<stop offset="1" stop-color="white" stop-opacity="0.25" style="stop-color:white;stop-opacity:0.25;"/>
</linearGradient>
<linearGradient id="paint12_linear_103_455" x1="-80.195" y1="-1.70569" x2="-206.753" y2="467.851" gradientUnits="userSpaceOnUse">
<stop stop-color="white" style="stop-color:white;stop-opacity:1;"/>
<stop offset="1" stop-color="white" stop-opacity="0.25" style="stop-color:white;stop-opacity:0.25;"/>
</linearGradient>
<linearGradient id="paint13_linear_103_455" x1="-78.4511" y1="6.7702" x2="-202.44" y2="466.797" gradientUnits="userSpaceOnUse">
<stop stop-color="white" style="stop-color:white;stop-opacity:1;"/>
<stop offset="1" stop-color="white" stop-opacity="0.25" style="stop-color:white;stop-opacity:0.25;"/>
</linearGradient>
<linearGradient id="paint14_linear_103_455" x1="-76.6775" y1="15.1177" x2="-198.139" y2="465.77" gradientUnits="userSpaceOnUse">
<stop stop-color="white" style="stop-color:white;stop-opacity:1;"/>
<stop offset="1" stop-color="white" stop-opacity="0.25" style="stop-color:white;stop-opacity:0.25;"/>
</linearGradient>
<linearGradient id="paint15_linear_103_455" x1="-74.8626" y1="23.3541" x2="-193.819" y2="464.715" gradientUnits="userSpaceOnUse">
<stop stop-color="white" style="stop-color:white;stop-opacity:1;"/>
<stop offset="1" stop-color="white" stop-opacity="0.25" style="stop-color:white;stop-opacity:0.25;"/>
</linearGradient>
<linearGradient id="paint16_linear_103_455" x1="-73.0132" y1="31.4737" x2="-189.497" y2="463.661" gradientUnits="userSpaceOnUse">
<stop stop-color="white" style="stop-color:white;stop-opacity:1;"/>
<stop offset="1" stop-color="white" stop-opacity="0.25" style="stop-color:white;stop-opacity:0.25;"/>
</linearGradient>
<linearGradient id="paint17_linear_103_455" x1="-65.0526" y1="16.616" x2="-185.261" y2="462.623" gradientUnits="userSpaceOnUse">
<stop stop-color="white" style="stop-color:white;stop-opacity:1;"/>
<stop offset="1" stop-color="white" stop-opacity="0.25" style="stop-color:white;stop-opacity:0.25;"/>
</linearGradient>
<linearGradient id="paint18_linear_103_455" x1="-55.371" y1="-4.66183" x2="-181.025" y2="461.544" gradientUnits="userSpaceOnUse">
<stop stop-color="white" style="stop-color:white;stop-opacity:1;"/>
<stop offset="1" stop-color="white" stop-opacity="0.25" style="stop-color:white;stop-opacity:0.25;"/>
</linearGradient>
<linearGradient id="paint19_linear_103_455" x1="-45.69" y1="-25.9366" x2="-176.798" y2="460.502" gradientUnits="userSpaceOnUse">
<stop stop-color="white" style="stop-color:white;stop-opacity:1;"/>
<stop offset="1" stop-color="white" stop-opacity="0.25" style="stop-color:white;stop-opacity:0.25;"/>
</linearGradient>
<linearGradient id="paint20_linear_103_455" x1="-36.0108" y1="-47.2113" x2="-172.566" y2="459.436" gradientUnits="userSpaceOnUse">
<stop stop-color="white" style="stop-color:white;stop-opacity:1;"/>
<stop offset="1" stop-color="white" stop-opacity="0.25" style="stop-color:white;stop-opacity:0.25;"/>
</linearGradient>
<linearGradient id="paint21_linear_103_455" x1="-26.3288" y1="-68.4887" x2="-168.336" y2="458.384" gradientUnits="userSpaceOnUse">
<stop stop-color="white" style="stop-color:white;stop-opacity:1;"/>
<stop offset="1" stop-color="white" stop-opacity="0.25" style="stop-color:white;stop-opacity:0.25;"/>
</linearGradient>
</defs>
</svg>
