<svg width="628" height="490" viewBox="0 0 628 490" fill="none" xmlns="http://www.w3.org/2000/svg">
<g opacity="0.2">
<path d="M225.988 1010.41C198.307 821.422 129.155 706.528 67.1376 634.949C15.4322 575.279 -10.3486 569.926 -45.4991 511.309C-121.773 384.104 -143.725 170.246 -33.4879 95.6258C20.8154 58.8677 70.9152 89.3194 179.231 91.5111C276.669 93.4806 416.633 71.6876 590.433 -41.2581" stroke="url(#paint0_linear_103_319)" stroke-miterlimit="10"/>
<path d="M203.634 1004.68C184.584 822.748 120.639 710.086 63.4264 639.69C15.2699 580.454 -7.47353 571.117 -41.1061 509.743C-111.66 380.996 -133.679 179.817 -29.2347 103.664C24.5603 64.4358 75.2367 88.4672 184.191 86.7221C280.113 85.1845 418.162 61.8003 590.11 -48.9246" stroke="url(#paint1_linear_103_319)" stroke-miterlimit="10"/>
<path d="M181.282 998.951C170.86 824.076 112.118 713.571 59.7173 644.422C15.0764 585.514 -4.62136 572.387 -36.711 508.168C-101.714 378.083 -123.718 189.055 -24.981 111.685C28.3623 69.8892 79.4878 87.6734 189.15 81.9196C283.512 76.9629 419.684 51.898 589.777 -56.6167" stroke="url(#paint2_linear_103_319)" stroke-miterlimit="10"/>
<path d="M158.927 993.22C157.133 825.404 103.597 716.96 55.9895 649.15C14.8382 590.5 -1.81274 573.742 -32.3096 506.582C-91.9401 375.343 -113.863 197.972 -20.7227 119.701C32.1924 75.2279 83.6766 86.947 194.115 77.1087C286.865 68.8486 421.208 41.9864 589.45 -64.2942" stroke="url(#paint3_linear_103_319)" stroke-miterlimit="10"/>
<path d="M136.575 987.49C143.418 826.718 95.1014 720.243 52.2962 653.884C14.5704 595.393 0.95548 575.142 -27.9185 505.024C-82.3479 372.795 -104.139 206.62 -16.4707 127.744C36.0518 80.4871 87.8123 86.3315 199.073 72.3245C290.183 60.8527 422.729 32.0992 589.103 -71.958" stroke="url(#paint4_linear_103_319)" stroke-miterlimit="10"/>
<path d="M114.222 981.76C129.691 828.059 86.6305 723.411 48.5869 658.616C14.2733 600.175 3.65261 576.645 -23.5201 503.45C-72.9329 370.367 -94.5453 214.978 -12.2184 135.773C39.9116 85.6229 91.904 85.8155 204.035 67.5261C293.482 52.949 424.25 22.2 588.791 -79.6317" stroke="url(#paint5_linear_103_319)" stroke-miterlimit="10"/>
<path d="M91.869 976.029C115.982 829.391 78.224 726.45 44.8778 663.349C13.9587 604.841 6.28743 578.189 -19.1253 501.878C-63.689 368.048 -85.1007 223.083 -7.96275 143.802C43.7515 90.6518 95.9801 85.3645 208.994 62.7267C296.77 45.1443 425.775 12.2881 588.46 -87.307" stroke="url(#paint6_linear_103_319)" stroke-miterlimit="10"/>
<path d="M69.5157 970.286C102.247 830.704 69.8907 729.336 41.1715 668.069C13.6522 609.365 8.85096 579.755 -14.7275 500.295C-54.613 365.812 -75.8035 230.943 -3.7041 151.819C47.5587 95.5583 100.036 85.024 213.959 57.916C300.049 37.443 427.283 2.39897 588.133 -94.9845" stroke="url(#paint7_linear_103_319)" stroke-miterlimit="10"/>
<path d="M47.1592 964.569C88.5191 832.045 61.6589 732.102 37.4562 672.813C13.3629 613.764 11.3027 581.403 -10.3318 498.733C-45.7014 363.657 -66.671 238.615 0.545584 159.859C51.3057 100.374 104.092 84.8181 218.918 53.1296C303.336 29.8318 428.817 -7.4978 587.809 -102.678" stroke="url(#paint8_linear_103_319)" stroke-miterlimit="10"/>
<path d="M24.8147 958.84C74.8039 833.373 53.5727 734.715 33.7562 677.547C13.1301 618.038 13.7172 583.068 -5.92757 497.163C-36.933 361.563 -57.6871 246.113 4.81069 167.891C54.9845 105.092 108.174 84.7103 223.889 48.3331C306.646 22.3149 430.348 -17.3985 587.487 -110.335" stroke="url(#paint9_linear_103_319)" stroke-miterlimit="10"/>
<path d="M2.4485 953.106C61.0733 834.683 45.6269 737.183 30.0386 682.273C12.9687 622.155 16.0081 584.742 -1.53778 495.586C-28.323 359.486 -48.8824 253.443 9.05439 175.917C58.5472 109.692 112.265 84.7124 228.843 43.5312C309.957 14.8792 431.86 -27.3015 587.144 -118.018" stroke="url(#paint10_linear_103_319)" stroke-miterlimit="10"/>
<path d="M-19.9058 947.375C47.3471 836.027 37.8779 739.532 26.3294 687.006C12.9459 626.148 18.2157 586.42 2.85733 494.014C-19.8364 357.429 -40.2236 260.643 13.3105 183.946C61.9959 114.193 116.405 84.8259 233.802 38.7317C313.304 7.51927 433.384 -37.2007 586.819 -125.692" stroke="url(#paint11_linear_103_319)" stroke-miterlimit="10"/>
<path d="M-42.2634 941.644C33.6215 837.356 30.336 741.786 22.617 691.738C13.1009 630.033 20.3267 588.131 7.25331 492.439C-11.4721 355.376 -31.7237 267.739 17.5674 191.973C65.2982 118.607 120.595 85.0469 238.764 33.9331C316.685 0.229632 434.905 -47.1006 586.492 -133.37" stroke="url(#paint12_linear_103_319)" stroke-miterlimit="10"/>
<path d="M-64.6185 935.913C19.8962 838.682 23.0145 743.971 18.9074 696.471C13.4917 633.84 22.3457 589.826 11.6498 490.875C-3.21757 353.327 -23.3611 274.764 21.8186 200.009C68.4325 122.912 124.848 85.3823 243.725 29.141C320.106 -7.00048 436.436 -56.9979 586.154 -141.046" stroke="url(#paint13_linear_103_319)" stroke-miterlimit="10"/>
<path d="M-86.9736 930.182C6.17338 840.011 15.9196 746.132 15.1952 701.216C14.173 637.631 24.2721 591.526 16.0444 489.306C4.93418 351.256 -15.1768 281.726 26.0734 208.045C71.369 127.14 129.174 85.8136 248.695 24.3508C323.576 -14.1601 437.957 -66.888 585.842 -148.707" stroke="url(#paint14_linear_103_319)" stroke-miterlimit="10"/>
<path d="M-109.332 924.45C-7.54885 841.324 9.04363 748.313 11.4889 705.936C15.2105 641.432 26.1121 593.188 20.4459 487.723C12.9857 349.151 -7.11855 288.638 30.3297 216.063C74.0891 131.269 133.574 86.3218 253.648 19.5367C327.083 -21.3077 439.472 -76.8028 585.505 -156.398" stroke="url(#paint15_linear_103_319)" stroke-miterlimit="10"/>
<path d="M-131.684 918.703C-21.2751 842.653 -8.7666 747.424 7.7802 710.653C34.8484 650.509 27.8627 594.826 24.8459 486.133C20.9772 347.009 0.795549 295.548 34.5862 224.093C76.5481 135.336 138.084 86.932 258.611 14.738C330.636 -28.4016 440.993 -86.703 585.165 -164.079" stroke="url(#paint16_linear_103_319)" stroke-miterlimit="10"/>
<path d="M-154.03 912.982C-34.9924 843.989 -13.1906 749.822 4.07899 715.398C34.3457 655.062 29.5338 596.472 29.2498 484.576C28.885 344.831 8.57535 302.484 38.8553 232.126C78.7593 139.354 142.686 87.6216 263.59 9.94546C334.261 -35.4623 442.532 -96.5955 584.862 -171.743" stroke="url(#paint17_linear_103_319)" stroke-miterlimit="10"/>
<path d="M-176.372 907.244C-48.7006 845.313 -17.3584 752.735 0.384289 720.128C33.501 659.26 31.1257 598.076 33.6485 482.999C36.7417 342.619 16.2411 309.455 43.1087 240.156C80.6533 143.324 147.377 88.38 268.543 5.14862C337.91 -42.502 444.049 -106.494 584.521 -179.418" stroke="url(#paint18_linear_103_319)" stroke-miterlimit="10"/>
<path d="M-198.711 901.508C-62.4121 846.636 -16.8796 758.404 -3.30995 724.854C23.3963 658.765 32.6441 599.643 38.0653 481.426C44.5486 340.352 23.7957 316.489 47.3871 248.189C82.2541 147.278 152.207 89.2113 273.535 0.354493C341.65 -49.5263 445.591 -116.39 584.217 -187.083" stroke="url(#paint19_linear_103_319)" stroke-miterlimit="10"/>
<path d="M-221.05 895.771C-76.1233 847.96 -23.199 761.464 -7.00877 729.586C26.2759 664.045 34.0831 601.185 42.4775 479.858C52.2992 338.046 31.2265 323.611 51.6577 256.226C83.4917 151.224 157.099 90.0836 278.499 -4.43349C345.419 -56.5341 447.114 -126.278 583.888 -194.752" stroke="url(#paint20_linear_103_319)" stroke-miterlimit="10"/>
<path d="M-243.392 890.033C-89.8338 849.28 -29.5965 764.817 -10.7039 734.315C29.2825 669.776 35.4526 602.686 46.894 478.285C60.011 335.68 38.5599 330.834 55.9325 264.257C84.4033 155.197 162.116 91.0083 283.477 -9.22837C349.234 -63.5444 448.654 -136.168 583.575 -202.42" stroke="url(#paint21_linear_103_319)" stroke-miterlimit="10"/>
</g>
<defs>
<linearGradient id="paint0_linear_103_319" x1="-137.9" y1="353.434" x2="459.285" y2="498.528" gradientUnits="userSpaceOnUse">
<stop stop-color="white" style="stop-color:white;stop-opacity:1;"/>
<stop offset="1" stop-color="white" stop-opacity="0.25" style="stop-color:white;stop-opacity:0.25;"/>
</linearGradient>
<linearGradient id="paint1_linear_103_319" x1="-127.996" y1="351.836" x2="458.14" y2="494.246" gradientUnits="userSpaceOnUse">
<stop stop-color="white" style="stop-color:white;stop-opacity:1;"/>
<stop offset="1" stop-color="white" stop-opacity="0.25" style="stop-color:white;stop-opacity:0.25;"/>
</linearGradient>
<linearGradient id="paint2_linear_103_319" x1="-118.195" y1="350.202" x2="456.982" y2="489.949" gradientUnits="userSpaceOnUse">
<stop stop-color="white" style="stop-color:white;stop-opacity:1;"/>
<stop offset="1" stop-color="white" stop-opacity="0.25" style="stop-color:white;stop-opacity:0.25;"/>
</linearGradient>
<linearGradient id="paint3_linear_103_319" x1="-108.512" y1="348.547" x2="455.832" y2="485.661" gradientUnits="userSpaceOnUse">
<stop stop-color="white" style="stop-color:white;stop-opacity:1;"/>
<stop offset="1" stop-color="white" stop-opacity="0.25" style="stop-color:white;stop-opacity:0.25;"/>
</linearGradient>
<linearGradient id="paint4_linear_103_319" x1="-98.9533" y1="346.87" x2="454.664" y2="481.377" gradientUnits="userSpaceOnUse">
<stop stop-color="white" style="stop-color:white;stop-opacity:1;"/>
<stop offset="1" stop-color="white" stop-opacity="0.25" style="stop-color:white;stop-opacity:0.25;"/>
</linearGradient>
<linearGradient id="paint5_linear_103_319" x1="-89.5206" y1="345.154" x2="453.529" y2="477.094" gradientUnits="userSpaceOnUse">
<stop stop-color="white" style="stop-color:white;stop-opacity:1;"/>
<stop offset="1" stop-color="white" stop-opacity="0.25" style="stop-color:white;stop-opacity:0.25;"/>
</linearGradient>
<linearGradient id="paint6_linear_103_319" x1="-80.218" y1="343.409" x2="452.376" y2="472.807" gradientUnits="userSpaceOnUse">
<stop stop-color="white" style="stop-color:white;stop-opacity:1;"/>
<stop offset="1" stop-color="white" stop-opacity="0.25" style="stop-color:white;stop-opacity:0.25;"/>
</linearGradient>
<linearGradient id="paint7_linear_103_319" x1="-71.044" y1="341.625" x2="451.227" y2="468.514" gradientUnits="userSpaceOnUse">
<stop stop-color="white" style="stop-color:white;stop-opacity:1;"/>
<stop offset="1" stop-color="white" stop-opacity="0.25" style="stop-color:white;stop-opacity:0.25;"/>
</linearGradient>
<linearGradient id="paint8_linear_103_319" x1="-62.0037" y1="339.813" x2="450.076" y2="464.226" gradientUnits="userSpaceOnUse">
<stop stop-color="white" style="stop-color:white;stop-opacity:1;"/>
<stop offset="1" stop-color="white" stop-opacity="0.25" style="stop-color:white;stop-opacity:0.25;"/>
</linearGradient>
<linearGradient id="paint9_linear_103_319" x1="-53.0826" y1="337.984" x2="448.933" y2="459.951" gradientUnits="userSpaceOnUse">
<stop stop-color="white" style="stop-color:white;stop-opacity:1;"/>
<stop offset="1" stop-color="white" stop-opacity="0.25" style="stop-color:white;stop-opacity:0.25;"/>
</linearGradient>
<linearGradient id="paint10_linear_103_319" x1="-44.3062" y1="336.109" x2="447.767" y2="455.661" gradientUnits="userSpaceOnUse">
<stop stop-color="white" style="stop-color:white;stop-opacity:1;"/>
<stop offset="1" stop-color="white" stop-opacity="0.25" style="stop-color:white;stop-opacity:0.25;"/>
</linearGradient>
<linearGradient id="paint11_linear_103_319" x1="-35.642" y1="334.21" x2="446.618" y2="451.377" gradientUnits="userSpaceOnUse">
<stop stop-color="white" style="stop-color:white;stop-opacity:1;"/>
<stop offset="1" stop-color="white" stop-opacity="0.25" style="stop-color:white;stop-opacity:0.25;"/>
</linearGradient>
<linearGradient id="paint12_linear_103_319" x1="-27.0991" y1="332.281" x2="445.467" y2="447.092" gradientUnits="userSpaceOnUse">
<stop stop-color="white" style="stop-color:white;stop-opacity:1;"/>
<stop offset="1" stop-color="white" stop-opacity="0.25" style="stop-color:white;stop-opacity:0.25;"/>
</linearGradient>
<linearGradient id="paint13_linear_103_319" x1="-18.6693" y1="330.326" x2="444.306" y2="442.807" gradientUnits="userSpaceOnUse">
<stop stop-color="white" style="stop-color:white;stop-opacity:1;"/>
<stop offset="1" stop-color="white" stop-opacity="0.25" style="stop-color:white;stop-opacity:0.25;"/>
</linearGradient>
<linearGradient id="paint14_linear_103_319" x1="-10.3686" y1="328.345" x2="443.172" y2="438.533" gradientUnits="userSpaceOnUse">
<stop stop-color="white" style="stop-color:white;stop-opacity:1;"/>
<stop offset="1" stop-color="white" stop-opacity="0.25" style="stop-color:white;stop-opacity:0.25;"/>
</linearGradient>
<linearGradient id="paint15_linear_103_319" x1="-2.18017" y1="326.325" x2="442.01" y2="434.241" gradientUnits="userSpaceOnUse">
<stop stop-color="white" style="stop-color:white;stop-opacity:1;"/>
<stop offset="1" stop-color="white" stop-opacity="0.25" style="stop-color:white;stop-opacity:0.25;"/>
</linearGradient>
<linearGradient id="paint16_linear_103_319" x1="5.89078" y1="324.274" x2="440.848" y2="429.946" gradientUnits="userSpaceOnUse">
<stop stop-color="white" style="stop-color:white;stop-opacity:1;"/>
<stop offset="1" stop-color="white" stop-opacity="0.25" style="stop-color:white;stop-opacity:0.25;"/>
</linearGradient>
<linearGradient id="paint17_linear_103_319" x1="-9.16075" y1="316.686" x2="439.705" y2="425.738" gradientUnits="userSpaceOnUse">
<stop stop-color="white" style="stop-color:white;stop-opacity:1;"/>
<stop offset="1" stop-color="white" stop-opacity="0.25" style="stop-color:white;stop-opacity:0.25;"/>
</linearGradient>
<linearGradient id="paint18_linear_103_319" x1="-30.6733" y1="307.538" x2="438.521" y2="421.529" gradientUnits="userSpaceOnUse">
<stop stop-color="white" style="stop-color:white;stop-opacity:1;"/>
<stop offset="1" stop-color="white" stop-opacity="0.25" style="stop-color:white;stop-opacity:0.25;"/>
</linearGradient>
<linearGradient id="paint19_linear_103_319" x1="-52.1828" y1="298.391" x2="437.374" y2="417.33" gradientUnits="userSpaceOnUse">
<stop stop-color="white" style="stop-color:white;stop-opacity:1;"/>
<stop offset="1" stop-color="white" stop-opacity="0.25" style="stop-color:white;stop-opacity:0.25;"/>
</linearGradient>
<linearGradient id="paint20_linear_103_319" x1="-73.6923" y1="289.245" x2="436.202" y2="413.126" gradientUnits="userSpaceOnUse">
<stop stop-color="white" style="stop-color:white;stop-opacity:1;"/>
<stop offset="1" stop-color="white" stop-opacity="0.25" style="stop-color:white;stop-opacity:0.25;"/>
</linearGradient>
<linearGradient id="paint21_linear_103_319" x1="-95.2045" y1="280.096" x2="435.046" y2="408.923" gradientUnits="userSpaceOnUse">
<stop stop-color="white" style="stop-color:white;stop-opacity:1;"/>
<stop offset="1" stop-color="white" stop-opacity="0.25" style="stop-color:white;stop-opacity:0.25;"/>
</linearGradient>
</defs>
</svg>
