<svg width="579" height="490" viewBox="0 0 579 490" fill="none" xmlns="http://www.w3.org/2000/svg">
<g opacity="0.2">
<path d="M923.991 332.054C794.251 251.486 688.392 234.467 612.677 235.431C549.556 236.238 532.99 249.225 479.05 240.463C361.997 221.445 220.018 124.551 231.279 18.725C236.826 -33.405 281.268 -48.3017 338.467 -113.336C389.921 -171.839 448.788 -268.576 469.414 -432.996" stroke="url(#paint0_linear_103_519)" stroke-miterlimit="10"/>
<path d="M908.962 342.755C787.984 260.554 686.174 241.506 613.659 240.145C552.633 239.009 535.199 248.085 480.357 236.974C365.311 213.666 231.042 123.353 238.379 20.2741C242.156 -32.8194 282.973 -51.38 338.096 -118.834C386.626 -178.221 443.533 -274.609 464.562 -436.754" stroke="url(#paint1_linear_103_519)" stroke-miterlimit="10"/>
<path d="M893.935 353.455C781.718 269.624 683.908 248.51 614.636 244.853C555.623 241.738 537.444 247 481.659 233.479C368.658 206.09 241.82 122.034 245.471 21.8146C247.445 -32.3278 284.677 -54.385 337.717 -124.34C383.354 -184.537 438.267 -280.646 459.689 -440.518" stroke="url(#paint2_linear_103_519)" stroke-miterlimit="10"/>
<path d="M878.905 364.157C775.449 278.696 681.583 255.465 615.601 249.57C558.545 244.457 539.719 245.985 482.958 229.974C372.022 198.709 252.347 120.615 252.561 23.3492C252.679 -31.9127 286.391 -57.3174 337.336 -129.853C380.123 -190.771 432.995 -286.689 454.828 -444.278" stroke="url(#paint3_linear_103_519)" stroke-miterlimit="10"/>
<path d="M863.876 374.857C769.179 287.752 679.207 262.349 616.587 254.27C561.394 247.146 542 245.018 484.269 226.49C375.409 191.537 262.642 119.137 259.665 24.9017C257.879 -31.5565 288.144 -60.1602 336.967 -135.349C376.947 -196.921 427.737 -292.718 449.965 -448.02" stroke="url(#paint4_linear_103_519)" stroke-miterlimit="10"/>
<path d="M848.848 385.557C762.918 296.831 676.773 269.159 617.564 258.978C564.161 249.796 544.308 244.147 485.573 222.993C378.778 184.535 272.693 117.589 266.759 26.4462C263.004 -31.2643 289.936 -62.925 336.592 -140.855C373.817 -203.012 422.472 -298.753 445.115 -451.788" stroke="url(#paint5_linear_103_519)" stroke-miterlimit="10"/>
<path d="M833.819 396.258C756.661 305.894 674.293 275.863 618.542 263.686C566.848 252.396 546.608 243.336 486.877 219.499C382.127 177.694 282.513 116.002 273.856 27.9893C268.054 -31.0149 291.76 -65.6465 336.215 -146.358C370.742 -209.046 417.2 -304.797 440.253 -455.545" stroke="url(#paint6_linear_103_519)" stroke-miterlimit="10"/>
<path d="M818.782 406.953C750.38 314.963 671.758 282.444 619.513 268.387C569.453 254.919 548.886 242.579 488.176 215.998C385.438 170.998 292.106 114.379 280.948 29.5245C273.012 -30.8084 293.641 -68.2984 335.833 -151.872C367.725 -215.021 411.934 -310.819 435.392 -459.305" stroke="url(#paint7_linear_103_519)" stroke-miterlimit="10"/>
<path d="M803.757 417.662C744.119 324.042 669.201 288.901 620.494 273.105C571.989 257.366 551.155 241.933 489.486 212.509C388.715 164.444 301.5 112.759 288.049 31.0772C277.884 -30.6122 295.604 -70.8814 335.464 -157.369C364.768 -220.954 406.677 -316.86 430.523 -463.076" stroke="url(#paint8_linear_103_519)" stroke-miterlimit="10"/>
<path d="M788.733 428.358C737.856 333.107 666.626 295.19 621.477 277.809C574.48 259.714 553.416 241.319 490.797 209.01C391.955 158.009 310.712 111.14 295.153 32.6156C282.66 -30.4251 297.64 -73.4293 335.095 -162.879C361.88 -226.853 401.415 -322.902 425.677 -466.829" stroke="url(#paint9_linear_103_519)" stroke-miterlimit="10"/>
<path d="M773.694 439.065C731.574 342.172 664.035 301.318 622.446 282.519C576.91 261.938 555.619 240.784 492.095 205.517C395.124 151.68 319.728 109.543 302.242 34.1641C287.305 -30.2276 299.748 -75.9265 334.713 -168.381C359.042 -232.71 396.142 -328.934 420.805 -470.583" stroke="url(#paint10_linear_103_519)" stroke-miterlimit="10"/>
<path d="M758.662 449.767C725.316 351.252 661.473 307.265 623.423 287.227C579.337 264.013 557.781 240.303 493.4 202.023C398.242 145.437 328.591 107.969 309.34 35.7074C291.831 -30.0112 301.95 -78.3957 334.335 -173.885C356.269 -238.551 390.878 -334.97 415.947 -474.343" stroke="url(#paint11_linear_103_519)" stroke-miterlimit="10"/>
<path d="M743.629 460.471C719.048 360.324 658.96 313.037 624.399 291.938C581.789 265.924 559.914 239.897 494.703 198.527C401.299 139.27 337.307 106.439 316.437 37.2486C296.228 -29.7505 304.243 -80.8399 333.96 -179.391C353.556 -244.375 385.612 -341.006 411.085 -478.103" stroke="url(#paint12_linear_103_519)" stroke-miterlimit="10"/>
<path d="M728.597 471.173C712.778 369.394 656.518 318.638 625.376 296.646C584.315 267.65 561.989 239.54 496.013 195.036C404.302 133.172 345.91 104.955 323.536 38.7975C300.472 -29.4438 306.639 -83.2646 333.588 -184.892C350.901 -250.194 380.352 -347.045 406.219 -481.857" stroke="url(#paint13_linear_103_519)" stroke-miterlimit="10"/>
<path d="M713.564 481.875C706.512 378.464 654.178 324.088 626.36 301.363C586.981 269.191 564.02 239.241 497.319 191.543C407.238 127.125 354.382 103.548 330.638 40.3447C304.566 -29.056 309.13 -85.684 333.222 -190.399C348.314 -256.006 375.092 -353.076 401.375 -485.618" stroke="url(#paint14_linear_103_519)" stroke-miterlimit="10"/>
<path d="M698.529 492.579C700.236 387.526 651.963 329.415 627.331 306.064C589.838 270.52 565.983 238.976 498.62 188.04C410.102 121.123 362.758 102.192 337.729 41.8815C308.49 -28.5862 311.707 -88.1082 332.833 -195.907C345.753 -261.834 369.813 -359.115 396.5 -489.378" stroke="url(#paint15_linear_103_519)" stroke-miterlimit="10"/>
<path d="M683.488 503.272C693.967 396.598 642.232 339.838 628.299 310.764C605.511 263.206 567.885 238.753 499.915 184.533C412.913 115.137 371.06 100.923 344.828 43.4247C312.24 -27.9895 314.403 -90.5475 332.458 -201.413C343.249 -267.663 364.546 -365.15 391.63 -493.133" stroke="url(#paint16_linear_103_519)" stroke-miterlimit="10"/>
<path d="M668.467 513.967C687.709 405.662 641.417 343.774 629.291 315.468C608.036 265.858 569.754 238.577 501.238 181.036C415.663 109.179 379.313 99.7437 351.942 44.9563C315.838 -27.2715 317.201 -93.0066 332.1 -206.93C340.807 -273.523 359.298 -371.196 386.793 -496.904" stroke="url(#paint17_linear_103_519)" stroke-miterlimit="10"/>
<path d="M653.44 524.65C681.45 414.714 641.049 347.816 630.277 320.159C610.167 268.534 571.558 238.427 502.546 177.53C418.368 103.234 387.531 98.6516 359.047 46.4948C319.246 -26.386 320.089 -95.4853 331.729 -212.434C338.391 -279.386 354.035 -377.231 381.931 -500.656" stroke="url(#paint18_linear_103_519)" stroke-miterlimit="10"/>
<path d="M638.415 535.33C675.188 423.766 644.761 350.442 631.261 324.848C604.655 274.446 573.301 238.302 503.866 174.015C421.013 97.2897 395.729 97.6588 366.165 48.0189C322.492 -25.3294 323.092 -98.0123 331.378 -217.961C336.032 -285.299 348.787 -383.281 377.093 -504.428" stroke="url(#paint19_linear_103_519)" stroke-miterlimit="10"/>
<path d="M623.39 546.011C668.926 432.819 643.373 355.875 632.246 329.542C609.368 275.404 574.987 238.212 505.186 170.505C423.604 91.3602 403.917 96.7878 373.282 49.5506C325.545 -24.0549 326.152 -100.555 331.016 -223.467C333.697 -291.219 343.535 -389.315 372.24 -508.185" stroke="url(#paint20_linear_103_519)" stroke-miterlimit="10"/>
<path d="M608.364 556.694C662.663 441.87 642.124 361.507 633.231 334.234C614.422 276.519 576.612 238.145 506.505 166.991C426.139 85.4244 412.115 96.029 380.397 51.0771C328.446 -22.5671 329.308 -103.147 330.657 -228.984C331.385 -297.169 338.289 -395.36 367.395 -511.951" stroke="url(#paint21_linear_103_519)" stroke-miterlimit="10"/>
</g>
<defs>
<linearGradient id="paint0_linear_103_519" x1="730.792" y1="-75.532" x2="334.197" y2="214.458" gradientUnits="userSpaceOnUse">
<stop stop-color="#34425D" style="stop-color:#34425D;stop-color:color(display-p3 0.2039 0.2588 0.3647);stop-opacity:1;"/>
<stop offset="1" stop-color="white" stop-opacity="0.25" style="stop-color:white;stop-opacity:0.25;"/>
</linearGradient>
<linearGradient id="paint1_linear_103_519" x1="727.6" y1="-77.0209" x2="338.341" y2="207.607" gradientUnits="userSpaceOnUse">
<stop stop-color="#34425D" style="stop-color:#34425D;stop-color:color(display-p3 0.2039 0.2588 0.3647);stop-opacity:1;"/>
<stop offset="1" stop-color="white" stop-opacity="0.25" style="stop-color:white;stop-opacity:0.25;"/>
</linearGradient>
<linearGradient id="paint2_linear_103_519" x1="724.392" y1="-78.5093" x2="342.409" y2="200.8" gradientUnits="userSpaceOnUse">
<stop stop-color="#34425D" style="stop-color:#34425D;stop-color:color(display-p3 0.2039 0.2588 0.3647);stop-opacity:1;"/>
<stop offset="1" stop-color="white" stop-opacity="0.25" style="stop-color:white;stop-opacity:0.25;"/>
</linearGradient>
<linearGradient id="paint3_linear_103_519" x1="721.193" y1="-79.9984" x2="346.403" y2="194.052" gradientUnits="userSpaceOnUse">
<stop stop-color="#34425D" style="stop-color:#34425D;stop-color:color(display-p3 0.2039 0.2588 0.3647);stop-opacity:1;"/>
<stop offset="1" stop-color="white" stop-opacity="0.25" style="stop-color:white;stop-opacity:0.25;"/>
</linearGradient>
<linearGradient id="paint4_linear_103_519" x1="717.988" y1="-81.4745" x2="350.319" y2="187.37" gradientUnits="userSpaceOnUse">
<stop stop-color="#34425D" style="stop-color:#34425D;stop-color:color(display-p3 0.2039 0.2588 0.3647);stop-opacity:1;"/>
<stop offset="1" stop-color="white" stop-opacity="0.25" style="stop-color:white;stop-opacity:0.25;"/>
</linearGradient>
<linearGradient id="paint5_linear_103_519" x1="714.8" y1="-82.9711" x2="354.147" y2="180.744" gradientUnits="userSpaceOnUse">
<stop stop-color="#34425D" style="stop-color:#34425D;stop-color:color(display-p3 0.2039 0.2588 0.3647);stop-opacity:1;"/>
<stop offset="1" stop-color="white" stop-opacity="0.25" style="stop-color:white;stop-opacity:0.25;"/>
</linearGradient>
<linearGradient id="paint6_linear_103_519" x1="711.6" y1="-84.4577" x2="357.89" y2="174.182" gradientUnits="userSpaceOnUse">
<stop stop-color="#34425D" style="stop-color:#34425D;stop-color:color(display-p3 0.2039 0.2588 0.3647);stop-opacity:1;"/>
<stop offset="1" stop-color="white" stop-opacity="0.25" style="stop-color:white;stop-opacity:0.25;"/>
</linearGradient>
<linearGradient id="paint7_linear_103_519" x1="708.398" y1="-85.9504" x2="361.542" y2="167.679" gradientUnits="userSpaceOnUse">
<stop stop-color="#34425D" style="stop-color:#34425D;stop-color:color(display-p3 0.2039 0.2588 0.3647);stop-opacity:1;"/>
<stop offset="1" stop-color="white" stop-opacity="0.25" style="stop-color:white;stop-opacity:0.25;"/>
</linearGradient>
<linearGradient id="paint8_linear_103_519" x1="705.198" y1="-87.4407" x2="365.108" y2="161.242" gradientUnits="userSpaceOnUse">
<stop stop-color="#34425D" style="stop-color:#34425D;stop-color:color(display-p3 0.2039 0.2588 0.3647);stop-opacity:1;"/>
<stop offset="1" stop-color="white" stop-opacity="0.25" style="stop-color:white;stop-opacity:0.25;"/>
</linearGradient>
<linearGradient id="paint9_linear_103_519" x1="702.01" y1="-88.9282" x2="368.603" y2="154.87" gradientUnits="userSpaceOnUse">
<stop stop-color="#34425D" style="stop-color:#34425D;stop-color:color(display-p3 0.2039 0.2588 0.3647);stop-opacity:1;"/>
<stop offset="1" stop-color="white" stop-opacity="0.25" style="stop-color:white;stop-opacity:0.25;"/>
</linearGradient>
<linearGradient id="paint10_linear_103_519" x1="698.8" y1="-90.4104" x2="371.995" y2="148.562" gradientUnits="userSpaceOnUse">
<stop stop-color="#34425D" style="stop-color:#34425D;stop-color:color(display-p3 0.2039 0.2588 0.3647);stop-opacity:1;"/>
<stop offset="1" stop-color="white" stop-opacity="0.25" style="stop-color:white;stop-opacity:0.25;"/>
</linearGradient>
<linearGradient id="paint11_linear_103_519" x1="695.604" y1="-91.8998" x2="375.313" y2="142.309" gradientUnits="userSpaceOnUse">
<stop stop-color="#34425D" style="stop-color:#34425D;stop-color:color(display-p3 0.2039 0.2588 0.3647);stop-opacity:1;"/>
<stop offset="1" stop-color="white" stop-opacity="0.25" style="stop-color:white;stop-opacity:0.25;"/>
</linearGradient>
<linearGradient id="paint12_linear_103_519" x1="692.405" y1="-93.3888" x2="378.551" y2="136.115" gradientUnits="userSpaceOnUse">
<stop stop-color="#34425D" style="stop-color:#34425D;stop-color:color(display-p3 0.2039 0.2588 0.3647);stop-opacity:1;"/>
<stop offset="1" stop-color="white" stop-opacity="0.25" style="stop-color:white;stop-opacity:0.25;"/>
</linearGradient>
<linearGradient id="paint13_linear_103_519" x1="689.2" y1="-94.8721" x2="381.715" y2="129.976" gradientUnits="userSpaceOnUse">
<stop stop-color="#34425D" style="stop-color:#34425D;stop-color:color(display-p3 0.2039 0.2588 0.3647);stop-opacity:1;"/>
<stop offset="1" stop-color="white" stop-opacity="0.25" style="stop-color:white;stop-opacity:0.25;"/>
</linearGradient>
<linearGradient id="paint14_linear_103_519" x1="686.017" y1="-96.3662" x2="384.795" y2="123.903" gradientUnits="userSpaceOnUse">
<stop stop-color="#34425D" style="stop-color:#34425D;stop-color:color(display-p3 0.2039 0.2588 0.3647);stop-opacity:1;"/>
<stop offset="1" stop-color="white" stop-opacity="0.25" style="stop-color:white;stop-opacity:0.25;"/>
</linearGradient>
<linearGradient id="paint15_linear_103_519" x1="682.807" y1="-97.852" x2="387.795" y2="117.878" gradientUnits="userSpaceOnUse">
<stop stop-color="#34425D" style="stop-color:#34425D;stop-color:color(display-p3 0.2039 0.2588 0.3647);stop-opacity:1;"/>
<stop offset="1" stop-color="white" stop-opacity="0.25" style="stop-color:white;stop-opacity:0.25;"/>
</linearGradient>
<linearGradient id="paint16_linear_103_519" x1="679.596" y1="-99.3402" x2="390.714" y2="111.908" gradientUnits="userSpaceOnUse">
<stop stop-color="#34425D" style="stop-color:#34425D;stop-color:color(display-p3 0.2039 0.2588 0.3647);stop-opacity:1;"/>
<stop offset="1" stop-color="white" stop-opacity="0.25" style="stop-color:white;stop-opacity:0.25;"/>
</linearGradient>
<linearGradient id="paint17_linear_103_519" x1="676.417" y1="-100.84" x2="378.299" y2="117.16" gradientUnits="userSpaceOnUse">
<stop stop-color="#34425D" style="stop-color:#34425D;stop-color:color(display-p3 0.2039 0.2588 0.3647);stop-opacity:1;"/>
<stop offset="1" stop-color="white" stop-opacity="0.25" style="stop-color:white;stop-opacity:0.25;"/>
</linearGradient>
<linearGradient id="paint18_linear_103_519" x1="673.209" y1="-102.328" x2="361.592" y2="125.542" gradientUnits="userSpaceOnUse">
<stop stop-color="#34425D" style="stop-color:#34425D;stop-color:color(display-p3 0.2039 0.2588 0.3647);stop-opacity:1;"/>
<stop offset="1" stop-color="white" stop-opacity="0.25" style="stop-color:white;stop-opacity:0.25;"/>
</linearGradient>
<linearGradient id="paint19_linear_103_519" x1="670.025" y1="-103.835" x2="344.886" y2="133.921" gradientUnits="userSpaceOnUse">
<stop stop-color="#34425D" style="stop-color:#34425D;stop-color:color(display-p3 0.2039 0.2588 0.3647);stop-opacity:1;"/>
<stop offset="1" stop-color="white" stop-opacity="0.25" style="stop-color:white;stop-opacity:0.25;"/>
</linearGradient>
<linearGradient id="paint20_linear_103_519" x1="666.825" y1="-105.328" x2="328.182" y2="142.301" gradientUnits="userSpaceOnUse">
<stop stop-color="#34425D" style="stop-color:#34425D;stop-color:color(display-p3 0.2039 0.2588 0.3647);stop-opacity:1;"/>
<stop offset="1" stop-color="white" stop-opacity="0.25" style="stop-color:white;stop-opacity:0.25;"/>
</linearGradient>
<linearGradient id="paint21_linear_103_519" x1="663.634" y1="-106.829" x2="311.475" y2="150.682" gradientUnits="userSpaceOnUse">
<stop stop-color="#34425D" style="stop-color:#34425D;stop-color:color(display-p3 0.2039 0.2588 0.3647);stop-opacity:1;"/>
<stop offset="1" stop-color="white" stop-opacity="0.25" style="stop-color:white;stop-opacity:0.25;"/>
</linearGradient>
</defs>
</svg>
