<svg width="509" height="490" viewBox="0 0 509 490" fill="none" xmlns="http://www.w3.org/2000/svg">
<g opacity="0.2">
<path d="M-833.912 262.366C-645.493 231.04 -531.955 159.681 -461.588 96.2933C-402.927 43.4451 -398.074 17.5657 -340.146 -18.7104C-214.438 -97.4272 -1.0443 -123.505 75.6914 -14.7295C113.491 38.8537 84.013 89.5322 83.9137 197.87C83.8264 295.328 108.318 434.845 224.6 606.432" stroke="url(#paint0_linear_103_495)" stroke-miterlimit="10"/>
<path d="M-828.614 239.905C-647.083 217.345 -535.678 151.236 -466.4 92.6745C-408.105 43.383 -399.208 20.4634 -338.496 -14.3482C-211.135 -87.3758 -10.419 -113.276 67.7374 -10.3217C107.997 42.7056 84.9486 93.8367 88.7977 202.737C92.1875 298.611 118.234 436.183 232.259 605.961" stroke="url(#paint1_linear_103_495)" stroke-miterlimit="10"/>
<path d="M-823.317 217.446C-648.677 203.649 -539.326 142.784 -471.202 89.0573C-413.167 43.2871 -400.423 23.3395 -336.836 -9.98439C-208.031 -77.4873 -19.4632 -103.138 59.7995 -5.91402C102.618 46.6122 85.8243 98.0716 93.6949 207.602C100.473 301.85 128.163 437.513 239.943 605.479" stroke="url(#paint2_linear_103_495)" stroke-miterlimit="10"/>
<path d="M-818.02 194.985C-650.269 189.95 -542.88 134.329 -476.001 85.4215C-418.158 43.1453 -401.724 26.1737 -335.165 -5.61451C-205.103 -67.7686 -28.1882 -93.1126 51.867 -1.50171C97.354 50.5446 86.6314 102.246 98.6008 212.473C108.651 305.046 138.102 438.845 247.613 605.003" stroke="url(#paint3_linear_103_495)" stroke-miterlimit="10"/>
<path d="M-812.721 172.526C-651.847 176.264 -546.326 125.899 -480.806 81.8206C-423.055 42.9721 -403.07 28.9687 -333.523 -1.25408C-202.37 -58.2272 -36.6462 -83.2234 43.9076 2.90504C92.1705 54.5051 87.3267 106.369 103.48 217.338C116.709 308.21 148.017 440.176 255.268 604.509" stroke="url(#paint4_linear_103_495)" stroke-miterlimit="10"/>
<path d="M-807.424 150.067C-653.453 162.564 -549.657 117.491 -485.609 78.2033C-427.841 42.7674 -404.521 31.6942 -331.864 3.113C-199.76 -48.8609 -44.8174 -73.4704 35.9629 7.31153C87.1101 58.4632 87.9217 110.45 108.373 222.206C124.675 311.355 157.944 441.505 262.935 604.049" stroke="url(#paint5_linear_103_495)" stroke-miterlimit="10"/>
<path d="M-802.127 127.608C-655.05 148.884 -552.858 109.145 -490.412 74.5863C-432.512 42.543 -406.013 34.3585 -330.208 7.4767C-197.264 -39.6635 -52.7388 -63.8708 28.0176 11.7215C82.1562 62.3996 88.4513 114.516 113.267 227.072C132.542 314.492 167.883 442.838 270.602 603.57" stroke="url(#paint6_linear_103_495)" stroke-miterlimit="10"/>
<path d="M-796.817 105.148C-656.628 135.177 -555.904 100.869 -495.203 70.9719C-437.041 42.3239 -407.53 36.9517 -328.54 11.843C-194.852 -30.6323 -60.4176 -54.4236 20.0842 16.1342C77.3242 66.3008 88.87 118.565 118.173 231.943C140.305 317.622 177.8 444.155 278.272 603.094" stroke="url(#paint7_linear_103_495)" stroke-miterlimit="10"/>
<path d="M-791.532 82.6849C-658.234 121.478 -558.828 92.6923 -500.017 67.349C-441.445 42.1197 -409.13 39.4349 -326.893 16.2079C-192.525 -21.7639 -67.9116 -45.1446 12.1271 20.5385C72.5816 70.1402 89.1544 122.616 123.055 236.809C147.978 320.761 187.725 445.498 285.958 602.622" stroke="url(#paint8_linear_103_495)" stroke-miterlimit="10"/>
<path d="M-786.236 60.2339C-659.826 107.791 -561.597 84.6579 -504.823 63.741C-445.723 41.9694 -410.748 41.8811 -325.239 20.5809C-190.263 -13.0377 -75.2352 -36.0176 4.17933 24.9578C67.9358 73.9094 89.3408 126.695 127.946 241.687C155.558 323.926 197.653 446.837 293.607 602.152" stroke="url(#paint9_linear_103_495)" stroke-miterlimit="10"/>
<path d="M-780.934 37.7609C-661.401 94.0876 -564.218 76.7611 -509.62 60.1152C-449.842 41.8874 -412.378 44.2036 -323.577 24.9392C-188.019 -4.46958 -82.3933 -27.0731 -3.76277 29.3555C63.4055 77.5601 89.4178 130.785 132.843 246.546C163.056 327.091 207.583 448.158 301.281 601.661" stroke="url(#paint10_linear_103_495)" stroke-miterlimit="10"/>
<path d="M-775.637 15.3002C-663.011 80.3901 -566.716 69.0589 -514.423 56.4982C-453.835 41.9419 -414.013 46.4434 -321.921 29.3032C-185.8 3.97585 -89.425 -18.2768 -11.7089 33.766C58.9714 81.0952 89.3841 134.927 137.737 251.412C170.479 330.297 217.51 449.49 308.948 601.188" stroke="url(#paint11_linear_103_495)" stroke-miterlimit="10"/>
<path d="M-770.338 -7.16397C-664.604 66.6927 -569.115 61.562 -519.226 52.8778C-457.716 42.1718 -415.682 48.587 -320.261 33.6679C-183.586 12.2988 -96.3561 -9.64151 -19.652 38.1771C54.6221 84.482 89.2442 139.12 142.631 256.28C177.833 333.535 227.437 450.82 316.618 600.712" stroke="url(#paint12_linear_103_495)" stroke-miterlimit="10"/>
<path d="M-765.04 -29.6255C-666.195 52.9956 -571.442 54.2842 -524.029 49.2605C-461.515 42.6362 -417.339 50.6385 -318.612 38.0335C-181.377 20.5124 -103.218 -1.1447 -27.6043 42.5828C50.3784 87.6991 88.9909 143.379 147.518 261.147C185.128 336.816 237.362 452.159 324.287 600.226" stroke="url(#paint13_linear_103_495)" stroke-miterlimit="10"/>
<path d="M-759.742 -52.0869C-667.789 39.3012 -573.74 47.2325 -528.845 45.6407C-465.292 43.3907 -419.001 52.5974 -316.959 42.3971C-179.149 28.6227 -110.02 7.1726 -35.5569 46.9922C46.2085 90.7168 88.6433 147.713 152.403 266.024C192.353 340.148 247.28 453.49 331.94 599.767" stroke="url(#paint14_linear_103_495)" stroke-miterlimit="10"/>
<path d="M-754.443 -74.5521C-669.367 25.6066 -576.053 40.3997 -533.636 42.026C-469.072 44.5012 -420.627 54.469 -315.291 46.767C-176.889 36.6319 -116.775 15.3627 -43.4904 51.4023C42.1322 93.5159 88.2202 152.122 157.312 270.883C199.567 343.516 257.222 454.812 339.623 599.28" stroke="url(#paint15_linear_103_495)" stroke-miterlimit="10"/>
<path d="M-749.129 -97.0107C-670.96 11.9087 -575.508 22.5757 -538.424 38.4092C-477.768 64.3108 -422.23 56.251 -313.616 51.1355C-174.593 44.5807 -123.531 23.4089 -51.4371 55.8131C38.1136 96.0531 87.6973 156.643 162.206 275.752C206.728 346.931 267.15 456.142 347.296 598.792" stroke="url(#paint16_linear_103_495)" stroke-miterlimit="10"/>
<path d="M-743.84 -119.463C-672.561 -1.78028 -577.991 18.1988 -543.239 34.8003C-482.331 63.8961 -423.844 57.9535 -311.975 55.5085C-172.263 52.4449 -130.316 31.3212 -59.3863 60.2367C34.139 98.3415 87.0966 161.257 167.093 280.638C213.858 350.419 277.07 457.49 354.953 598.341" stroke="url(#paint17_linear_103_495)" stroke-miterlimit="10"/>
<path d="M-738.535 -141.912C-674.15 -15.4602 -580.983 14.0881 -548.04 31.1978C-486.544 63.1327 -425.418 59.5763 -310.313 59.876C-169.899 60.2575 -137.138 39.1202 -67.3329 64.6444C30.207 100.312 86.429 165.961 171.985 285.498C220.966 353.932 286.997 458.815 362.619 597.852" stroke="url(#paint18_linear_103_495)" stroke-miterlimit="10"/>
<path d="M-733.231 -164.358C-675.738 -29.1436 -586.642 14.6763 -552.837 27.5955C-486.244 53.0203 -426.955 61.1246 -308.655 64.2616C-167.482 68.0191 -144.024 46.8092 -75.2816 69.0771C26.2839 101.989 85.6911 170.807 176.875 290.397C228.062 357.535 296.921 460.165 370.278 597.401" stroke="url(#paint19_linear_103_495)" stroke-miterlimit="10"/>
<path d="M-727.927 -186.803C-677.326 -42.8268 -589.824 8.41709 -557.639 23.9887C-491.468 56.0013 -428.468 62.593 -307.002 68.6427C-165.026 75.7236 -151.001 54.3761 -83.2348 73.5021C22.3624 103.302 84.9135 175.715 181.758 295.267C235.141 361.168 306.836 461.497 377.938 596.923" stroke="url(#paint20_linear_103_495)" stroke-miterlimit="10"/>
<path d="M-722.622 -209.251C-678.91 -56.5093 -593.3 2.08556 -562.439 20.3855C-497.139 59.118 -429.942 63.9912 -305.344 73.028C-162.512 83.3883 -158.081 61.8476 -91.1818 77.9312C18.4083 104.29 84.0858 180.749 186.648 300.152C242.224 364.847 316.754 462.846 385.599 596.462" stroke="url(#paint21_linear_103_495)" stroke-miterlimit="10"/>
</g>
<defs>
<linearGradient id="paint0_linear_103_495" x1="-184.085" y1="-114.143" x2="-317.619" y2="485.732" gradientUnits="userSpaceOnUse">
<stop stop-color="white" style="stop-color:white;stop-opacity:1;"/>
<stop offset="1" stop-color="white" stop-opacity="0.25" style="stop-color:white;stop-opacity:0.25;"/>
</linearGradient>
<linearGradient id="paint1_linear_103_495" x1="-182.297" y1="-104.271" x2="-313.359" y2="484.505" gradientUnits="userSpaceOnUse">
<stop stop-color="white" style="stop-color:white;stop-opacity:1;"/>
<stop offset="1" stop-color="white" stop-opacity="0.25" style="stop-color:white;stop-opacity:0.25;"/>
</linearGradient>
<linearGradient id="paint2_linear_103_495" x1="-180.474" y1="-94.5045" x2="-309.086" y2="483.265" gradientUnits="userSpaceOnUse">
<stop stop-color="white" style="stop-color:white;stop-opacity:1;"/>
<stop offset="1" stop-color="white" stop-opacity="0.25" style="stop-color:white;stop-opacity:0.25;"/>
</linearGradient>
<linearGradient id="paint3_linear_103_495" x1="-178.631" y1="-84.8548" x2="-304.82" y2="482.032" gradientUnits="userSpaceOnUse">
<stop stop-color="white" style="stop-color:white;stop-opacity:1;"/>
<stop offset="1" stop-color="white" stop-opacity="0.25" style="stop-color:white;stop-opacity:0.25;"/>
</linearGradient>
<linearGradient id="paint4_linear_103_495" x1="-176.77" y1="-75.3301" x2="-300.56" y2="480.782" gradientUnits="userSpaceOnUse">
<stop stop-color="white" style="stop-color:white;stop-opacity:1;"/>
<stop offset="1" stop-color="white" stop-opacity="0.25" style="stop-color:white;stop-opacity:0.25;"/>
</linearGradient>
<linearGradient id="paint5_linear_103_495" x1="-174.873" y1="-65.9325" x2="-296.299" y2="479.564" gradientUnits="userSpaceOnUse">
<stop stop-color="white" style="stop-color:white;stop-opacity:1;"/>
<stop offset="1" stop-color="white" stop-opacity="0.25" style="stop-color:white;stop-opacity:0.25;"/>
</linearGradient>
<linearGradient id="paint6_linear_103_495" x1="-172.948" y1="-56.6652" x2="-292.036" y2="478.328" gradientUnits="userSpaceOnUse">
<stop stop-color="white" style="stop-color:white;stop-opacity:1;"/>
<stop offset="1" stop-color="white" stop-opacity="0.25" style="stop-color:white;stop-opacity:0.25;"/>
</linearGradient>
<linearGradient id="paint7_linear_103_495" x1="-170.987" y1="-47.5274" x2="-287.766" y2="477.096" gradientUnits="userSpaceOnUse">
<stop stop-color="white" style="stop-color:white;stop-opacity:1;"/>
<stop offset="1" stop-color="white" stop-opacity="0.25" style="stop-color:white;stop-opacity:0.25;"/>
</linearGradient>
<linearGradient id="paint8_linear_103_495" x1="-169.001" y1="-38.5236" x2="-283.501" y2="475.864" gradientUnits="userSpaceOnUse">
<stop stop-color="white" style="stop-color:white;stop-opacity:1;"/>
<stop offset="1" stop-color="white" stop-opacity="0.25" style="stop-color:white;stop-opacity:0.25;"/>
</linearGradient>
<linearGradient id="paint9_linear_103_495" x1="-167" y1="-29.6397" x2="-279.249" y2="474.638" gradientUnits="userSpaceOnUse">
<stop stop-color="white" style="stop-color:white;stop-opacity:1;"/>
<stop offset="1" stop-color="white" stop-opacity="0.25" style="stop-color:white;stop-opacity:0.25;"/>
</linearGradient>
<linearGradient id="paint10_linear_103_495" x1="-164.956" y1="-20.9013" x2="-274.981" y2="473.389" gradientUnits="userSpaceOnUse">
<stop stop-color="white" style="stop-color:white;stop-opacity:1;"/>
<stop offset="1" stop-color="white" stop-opacity="0.25" style="stop-color:white;stop-opacity:0.25;"/>
</linearGradient>
<linearGradient id="paint11_linear_103_495" x1="-162.89" y1="-12.2753" x2="-270.721" y2="472.158" gradientUnits="userSpaceOnUse">
<stop stop-color="white" style="stop-color:white;stop-opacity:1;"/>
<stop offset="1" stop-color="white" stop-opacity="0.25" style="stop-color:white;stop-opacity:0.25;"/>
</linearGradient>
<linearGradient id="paint12_linear_103_495" x1="-160.796" y1="-3.77127" x2="-266.459" y2="470.924" gradientUnits="userSpaceOnUse">
<stop stop-color="white" style="stop-color:white;stop-opacity:1;"/>
<stop offset="1" stop-color="white" stop-opacity="0.25" style="stop-color:white;stop-opacity:0.25;"/>
</linearGradient>
<linearGradient id="paint13_linear_103_495" x1="-158.679" y1="4.61931" x2="-262.197" y2="469.681" gradientUnits="userSpaceOnUse">
<stop stop-color="white" style="stop-color:white;stop-opacity:1;"/>
<stop offset="1" stop-color="white" stop-opacity="0.25" style="stop-color:white;stop-opacity:0.25;"/>
</linearGradient>
<linearGradient id="paint14_linear_103_495" x1="-156.538" y1="12.8803" x2="-257.946" y2="468.465" gradientUnits="userSpaceOnUse">
<stop stop-color="white" style="stop-color:white;stop-opacity:1;"/>
<stop offset="1" stop-color="white" stop-opacity="0.25" style="stop-color:white;stop-opacity:0.25;"/>
</linearGradient>
<linearGradient id="paint15_linear_103_495" x1="-154.36" y1="21.028" x2="-253.677" y2="467.219" gradientUnits="userSpaceOnUse">
<stop stop-color="white" style="stop-color:white;stop-opacity:1;"/>
<stop offset="1" stop-color="white" stop-opacity="0.25" style="stop-color:white;stop-opacity:0.25;"/>
</linearGradient>
<linearGradient id="paint16_linear_103_495" x1="-152.154" y1="29.0579" x2="-249.405" y2="465.974" gradientUnits="userSpaceOnUse">
<stop stop-color="white" style="stop-color:white;stop-opacity:1;"/>
<stop offset="1" stop-color="white" stop-opacity="0.25" style="stop-color:white;stop-opacity:0.25;"/>
</linearGradient>
<linearGradient id="paint17_linear_103_495" x1="-144.858" y1="13.8627" x2="-245.22" y2="464.75" gradientUnits="userSpaceOnUse">
<stop stop-color="white" style="stop-color:white;stop-opacity:1;"/>
<stop offset="1" stop-color="white" stop-opacity="0.25" style="stop-color:white;stop-opacity:0.25;"/>
</linearGradient>
<linearGradient id="paint18_linear_103_495" x1="-136.127" y1="-7.82246" x2="-241.035" y2="463.486" gradientUnits="userSpaceOnUse">
<stop stop-color="white" style="stop-color:white;stop-opacity:1;"/>
<stop offset="1" stop-color="white" stop-opacity="0.25" style="stop-color:white;stop-opacity:0.25;"/>
</linearGradient>
<linearGradient id="paint19_linear_103_495" x1="-127.397" y1="-29.5047" x2="-236.858" y2="462.258" gradientUnits="userSpaceOnUse">
<stop stop-color="white" style="stop-color:white;stop-opacity:1;"/>
<stop offset="1" stop-color="white" stop-opacity="0.25" style="stop-color:white;stop-opacity:0.25;"/>
</linearGradient>
<linearGradient id="paint20_linear_103_495" x1="-118.668" y1="-51.1869" x2="-232.678" y2="461.005" gradientUnits="userSpaceOnUse">
<stop stop-color="white" style="stop-color:white;stop-opacity:1;"/>
<stop offset="1" stop-color="white" stop-opacity="0.25" style="stop-color:white;stop-opacity:0.25;"/>
</linearGradient>
<linearGradient id="paint21_linear_103_495" x1="-109.937" y1="-72.8717" x2="-228.499" y2="459.767" gradientUnits="userSpaceOnUse">
<stop stop-color="white" style="stop-color:white;stop-opacity:1;"/>
<stop offset="1" stop-color="white" stop-opacity="0.25" style="stop-color:white;stop-opacity:0.25;"/>
</linearGradient>
</defs>
</svg>
