<svg width="435" height="490" viewBox="0 0 435 490" fill="none" xmlns="http://www.w3.org/2000/svg">
<g opacity="0.2">
<path d="M695.564 405.684C597.885 288.286 502.808 238.726 430.659 215.744C370.509 196.588 350.691 203.683 302.273 178.343C197.206 123.354 93.0661 -13.3996 137.152 -110.262C158.869 -157.976 205.741 -158.085 280.542 -201.742C347.83 -241.015 434.22 -314.228 505.686 -463.734" stroke="url(#paint0_linear_103_295)" stroke-miterlimit="10"/>
<path d="M677.926 411.095C589.076 294.913 498.481 244.705 430.103 220.527C372.554 200.187 353.147 203.297 304.615 175.445C202.805 117.018 103.905 -11.057 143.4 -106.551C163.741 -155.739 208.33 -160.468 281.925 -207.077C346.718 -248.111 431.139 -321.611 502.268 -468.831" stroke="url(#paint1_linear_103_295)" stroke-miterlimit="10"/>
<path d="M660.29 416.506C580.267 301.542 494.121 250.636 429.544 225.303C374.53 203.721 355.62 202.976 306.954 172.54C208.373 110.886 114.548 -8.90597 149.643 -102.851C168.605 -153.603 210.896 -162.781 283.303 -212.42C345.606 -255.137 428.047 -329.002 498.832 -473.94" stroke="url(#paint2_linear_103_295)" stroke-miterlimit="10"/>
<path d="M642.651 421.917C571.456 308.171 489.72 256.502 428.97 230.083C376.445 207.224 358.099 202.731 309.292 169.624C213.895 104.943 124.985 -6.93021 155.887 -99.1569C173.44 -151.557 213.447 -165.023 284.682 -217.772C344.508 -262.071 424.952 -336.4 495.407 -479.043" stroke="url(#paint3_linear_103_295)" stroke-miterlimit="10"/>
<path d="M625.013 427.326C562.648 314.785 485.292 262.284 428.423 234.854C378.3 210.674 360.569 202.534 311.636 166.732C219.373 99.207 135.22 -5.08345 162.137 -95.4418C178.262 -149.578 216.008 -167.167 286.067 -223.103C343.436 -268.91 421.866 -343.78 491.974 -484.128" stroke="url(#paint4_linear_103_295)" stroke-miterlimit="10"/>
<path d="M607.376 432.736C553.841 321.424 480.833 267.978 427.865 239.63C380.089 214.062 363.033 202.436 313.978 163.825C224.779 93.6261 145.246 -3.37993 168.382 -91.737C183.033 -147.683 218.581 -169.225 287.448 -228.446C342.388 -275.678 418.774 -351.169 488.56 -489.235" stroke="url(#paint5_linear_103_295)" stroke-miterlimit="10"/>
<path d="M589.737 438.147C545.044 328.049 476.365 273.557 427.306 244.406C381.818 217.377 365.472 202.392 316.318 160.922C230.116 88.1918 155.064 -1.78664 174.629 -88.0328C187.746 -145.852 221.171 -171.232 288.827 -233.788C341.375 -282.374 415.679 -358.567 485.133 -494.334" stroke="url(#paint6_linear_103_295)" stroke-miterlimit="10"/>
<path d="M572.093 443.549C536.222 334.672 471.882 279.001 426.744 249.173C383.493 220.593 367.872 202.393 318.655 158.009C235.371 82.8834 164.68 -0.299109 180.873 -84.3379C192.385 -144.092 223.792 -173.155 290.205 -239.139C340.398 -288.995 412.583 -365.943 481.707 -499.436" stroke="url(#paint7_linear_103_295)" stroke-miterlimit="10"/>
<path d="M554.457 448.968C527.415 341.311 467.418 284.32 426.186 253.959C385.128 223.715 370.229 202.496 321 155.112C240.549 77.6986 174.105 1.1284 187.121 -80.6235C196.946 -142.368 226.47 -174.986 291.59 -244.473C339.465 -295.559 409.501 -373.335 478.277 -504.551" stroke="url(#paint8_linear_103_295)" stroke-miterlimit="10"/>
<path d="M536.825 454.377C518.611 347.936 462.99 289.475 425.634 258.733C386.75 226.73 372.569 202.627 323.348 152.206C245.655 72.6157 183.357 2.49996 193.377 -76.9213C201.42 -140.683 229.206 -176.761 292.979 -249.817C338.586 -302.067 406.416 -380.729 474.863 -509.642" stroke="url(#paint9_linear_103_295)" stroke-miterlimit="10"/>
<path d="M519.175 459.789C509.789 354.555 458.597 294.473 425.067 263.508C388.354 229.607 374.827 202.815 325.682 149.301C250.659 67.6098 192.416 3.83065 199.615 -73.2146C205.765 -139.029 231.995 -178.465 294.353 -255.159C337.742 -308.521 403.316 -388.116 471.424 -514.741" stroke="url(#paint10_linear_103_295)" stroke-miterlimit="10"/>
<path d="M501.534 465.2C500.985 361.196 454.289 299.307 424.508 268.285C390.002 232.342 377.031 203.04 328.023 146.397C255.588 62.6699 201.322 5.13425 205.863 -69.5099C209.991 -137.395 234.864 -180.113 295.732 -260.5C336.954 -314.938 400.226 -395.506 468.001 -519.842" stroke="url(#paint11_linear_103_295)" stroke-miterlimit="10"/>
<path d="M483.89 470.612C492.174 367.825 450.082 303.99 423.947 273.062C391.725 234.929 379.182 203.329 330.362 143.491C260.435 57.7833 210.077 6.43333 212.11 -65.8075C214.081 -135.76 237.81 -181.709 297.113 -265.843C336.218 -321.32 397.134 -402.895 464.575 -524.945" stroke="url(#paint12_linear_103_295)" stroke-miterlimit="10"/>
<path d="M466.249 476.022C483.362 374.453 445.997 308.535 423.388 277.838C393.577 237.365 381.265 203.645 332.707 140.591C265.209 52.9442 218.707 7.74001 218.358 -62.0972C218.011 -134.13 240.849 -183.254 298.497 -271.181C335.535 -327.68 394.049 -410.286 461.142 -530.043" stroke="url(#paint13_linear_103_295)" stroke-miterlimit="10"/>
<path d="M448.607 481.433C474.553 381.082 442.057 312.968 422.833 282.624C395.621 239.668 383.286 204.002 335.049 137.69C269.904 48.1336 227.191 9.07851 224.609 -58.3876C221.774 -132.47 243.977 -184.763 299.888 -276.521C334.915 -334.012 390.961 -417.669 457.734 -535.141" stroke="url(#paint14_linear_103_295)" stroke-miterlimit="10"/>
<path d="M430.962 486.845C465.738 387.699 438.273 317.324 422.271 287.391C397.912 241.83 385.232 204.37 337.389 134.776C274.516 43.3418 235.567 10.4358 230.852 -54.6913C225.348 -130.786 247.188 -186.25 301.257 -281.871C334.324 -340.351 387.858 -425.065 454.295 -540.247" stroke="url(#paint15_linear_103_295)" stroke-miterlimit="10"/>
<path d="M413.315 492.243C456.926 394.329 425.75 324.143 421.706 292.157C415.093 239.838 387.107 204.759 339.725 131.858C279.072 38.5494 243.844 11.852 237.101 -50.9862C228.718 -129.036 250.516 -187.713 302.638 -287.213C333.787 -346.672 384.765 -432.454 450.858 -545.347" stroke="url(#paint16_linear_103_295)" stroke-miterlimit="10"/>
<path d="M395.686 497.651C448.127 400.956 423.735 327.619 421.162 296.934C416.651 243.151 388.937 205.182 342.084 128.957C283.563 33.7642 252.048 13.3381 243.368 -47.2879C231.906 -127.219 253.947 -189.164 304.04 -292.561C333.32 -353.003 381.693 -439.847 447.458 -550.452" stroke="url(#paint17_linear_103_295)" stroke-miterlimit="10"/>
<path d="M378.056 503.045C439.331 407.568 422.11 331.339 420.617 301.696C417.829 246.363 390.696 205.609 344.432 126.043C288.006 28.9759 260.191 14.8953 249.624 -43.5858C234.86 -125.303 257.469 -190.605 305.425 -297.902C332.879 -359.329 378.605 -447.235 444.029 -555.547" stroke="url(#paint18_linear_103_295)" stroke-miterlimit="10"/>
<path d="M360.428 508.438C430.532 414.182 424.804 335.003 420.071 306.456C410.733 250.233 392.389 206.04 346.793 123.124C292.391 24.1709 268.283 16.5409 255.898 -39.8925C237.607 -123.276 261.116 -192.054 306.836 -303.257C332.506 -365.684 375.534 -454.632 440.629 -560.653" stroke="url(#paint19_linear_103_295)" stroke-miterlimit="10"/>
<path d="M342.8 513.83C421.733 420.795 421.772 339.72 419.525 311.221C414.903 252.63 394.017 206.487 349.154 120.211C296.722 19.3621 276.327 18.2985 262.168 -36.193C240.102 -121.103 264.823 -193.502 308.231 -308.595C332.159 -372.039 372.454 -462.016 437.21 -565.749" stroke="url(#paint20_linear_103_295)" stroke-miterlimit="10"/>
<path d="M325.17 519.224C412.934 427.407 418.809 344.67 418.979 315.984C419.346 255.282 395.581 206.937 351.514 117.292C301.001 14.5298 284.346 20.166 268.437 -32.4989C242.385 -118.776 268.636 -194.965 309.632 -313.944C331.843 -378.414 369.385 -469.407 433.802 -570.852" stroke="url(#paint21_linear_103_295)" stroke-miterlimit="10"/>
</g>
<defs>
<linearGradient id="paint0_linear_103_295" x1="640.882" y1="-42.0457" x2="173.033" y2="107.95" gradientUnits="userSpaceOnUse">
<stop stop-color="white" style="stop-color:white;stop-opacity:1;"/>
<stop offset="1" stop-color="white" stop-opacity="0.25" style="stop-color:white;stop-opacity:0.25;"/>
</linearGradient>
<linearGradient id="paint1_linear_103_295" x1="638.323" y1="-44.466" x2="179.127" y2="102.756" gradientUnits="userSpaceOnUse">
<stop stop-color="white" style="stop-color:white;stop-opacity:1;"/>
<stop offset="1" stop-color="white" stop-opacity="0.25" style="stop-color:white;stop-opacity:0.25;"/>
</linearGradient>
<linearGradient id="paint2_linear_103_295" x1="635.749" y1="-46.8907" x2="185.135" y2="97.5808" gradientUnits="userSpaceOnUse">
<stop stop-color="white" style="stop-color:white;stop-opacity:1;"/>
<stop offset="1" stop-color="white" stop-opacity="0.25" style="stop-color:white;stop-opacity:0.25;"/>
</linearGradient>
<linearGradient id="paint3_linear_103_295" x1="633.184" y1="-49.3132" x2="191.055" y2="92.4389" gradientUnits="userSpaceOnUse">
<stop stop-color="white" style="stop-color:white;stop-opacity:1;"/>
<stop offset="1" stop-color="white" stop-opacity="0.25" style="stop-color:white;stop-opacity:0.25;"/>
</linearGradient>
<linearGradient id="paint4_linear_103_295" x1="630.608" y1="-51.7254" x2="196.88" y2="87.3343" gradientUnits="userSpaceOnUse">
<stop stop-color="white" style="stop-color:white;stop-opacity:1;"/>
<stop offset="1" stop-color="white" stop-opacity="0.25" style="stop-color:white;stop-opacity:0.25;"/>
</linearGradient>
<linearGradient id="paint5_linear_103_295" x1="628.055" y1="-54.1519" x2="202.604" y2="82.2554" gradientUnits="userSpaceOnUse">
<stop stop-color="white" style="stop-color:white;stop-opacity:1;"/>
<stop offset="1" stop-color="white" stop-opacity="0.25" style="stop-color:white;stop-opacity:0.25;"/>
</linearGradient>
<linearGradient id="paint6_linear_103_295" x1="625.488" y1="-56.5724" x2="208.226" y2="77.2102" gradientUnits="userSpaceOnUse">
<stop stop-color="white" style="stop-color:white;stop-opacity:1;"/>
<stop offset="1" stop-color="white" stop-opacity="0.25" style="stop-color:white;stop-opacity:0.25;"/>
</linearGradient>
<linearGradient id="paint7_linear_103_295" x1="622.921" y1="-58.9994" x2="213.744" y2="72.1921" gradientUnits="userSpaceOnUse">
<stop stop-color="white" style="stop-color:white;stop-opacity:1;"/>
<stop offset="1" stop-color="white" stop-opacity="0.25" style="stop-color:white;stop-opacity:0.25;"/>
</linearGradient>
<linearGradient id="paint8_linear_103_295" x1="620.355" y1="-61.4236" x2="219.16" y2="67.2099" gradientUnits="userSpaceOnUse">
<stop stop-color="white" style="stop-color:white;stop-opacity:1;"/>
<stop offset="1" stop-color="white" stop-opacity="0.25" style="stop-color:white;stop-opacity:0.25;"/>
</linearGradient>
<linearGradient id="paint9_linear_103_295" x1="617.799" y1="-63.841" x2="224.487" y2="62.2661" gradientUnits="userSpaceOnUse">
<stop stop-color="white" style="stop-color:white;stop-opacity:1;"/>
<stop offset="1" stop-color="white" stop-opacity="0.25" style="stop-color:white;stop-opacity:0.25;"/>
</linearGradient>
<linearGradient id="paint10_linear_103_295" x1="615.221" y1="-66.2606" x2="229.696" y2="57.3508" gradientUnits="userSpaceOnUse">
<stop stop-color="white" style="stop-color:white;stop-opacity:1;"/>
<stop offset="1" stop-color="white" stop-opacity="0.25" style="stop-color:white;stop-opacity:0.25;"/>
</linearGradient>
<linearGradient id="paint11_linear_103_295" x1="612.659" y1="-68.6826" x2="234.819" y2="52.4657" gradientUnits="userSpaceOnUse">
<stop stop-color="white" style="stop-color:white;stop-opacity:1;"/>
<stop offset="1" stop-color="white" stop-opacity="0.25" style="stop-color:white;stop-opacity:0.25;"/>
</linearGradient>
<linearGradient id="paint12_linear_103_295" x1="610.093" y1="-71.1051" x2="239.846" y2="47.6098" gradientUnits="userSpaceOnUse">
<stop stop-color="white" style="stop-color:white;stop-opacity:1;"/>
<stop offset="1" stop-color="white" stop-opacity="0.25" style="stop-color:white;stop-opacity:0.25;"/>
</linearGradient>
<linearGradient id="paint13_linear_103_295" x1="607.52" y1="-73.5242" x2="244.785" y2="42.7832" gradientUnits="userSpaceOnUse">
<stop stop-color="white" style="stop-color:white;stop-opacity:1;"/>
<stop offset="1" stop-color="white" stop-opacity="0.25" style="stop-color:white;stop-opacity:0.25;"/>
</linearGradient>
<linearGradient id="paint14_linear_103_295" x1="604.971" y1="-75.9468" x2="249.625" y2="37.9924" gradientUnits="userSpaceOnUse">
<stop stop-color="white" style="stop-color:white;stop-opacity:1;"/>
<stop offset="1" stop-color="white" stop-opacity="0.25" style="stop-color:white;stop-opacity:0.25;"/>
</linearGradient>
<linearGradient id="paint15_linear_103_295" x1="602.394" y1="-78.3697" x2="254.373" y2="33.2221" gradientUnits="userSpaceOnUse">
<stop stop-color="white" style="stop-color:white;stop-opacity:1;"/>
<stop offset="1" stop-color="white" stop-opacity="0.25" style="stop-color:white;stop-opacity:0.25;"/>
</linearGradient>
<linearGradient id="paint16_linear_103_295" x1="599.817" y1="-80.7952" x2="259.027" y2="28.4789" gradientUnits="userSpaceOnUse">
<stop stop-color="white" style="stop-color:white;stop-opacity:1;"/>
<stop offset="1" stop-color="white" stop-opacity="0.25" style="stop-color:white;stop-opacity:0.25;"/>
</linearGradient>
<linearGradient id="paint17_linear_103_295" x1="597.274" y1="-83.2221" x2="245.589" y2="29.5443" gradientUnits="userSpaceOnUse">
<stop stop-color="white" style="stop-color:white;stop-opacity:1;"/>
<stop offset="1" stop-color="white" stop-opacity="0.25" style="stop-color:white;stop-opacity:0.25;"/>
</linearGradient>
<linearGradient id="paint18_linear_103_295" x1="594.699" y1="-85.6467" x2="227.091" y2="32.224" gradientUnits="userSpaceOnUse">
<stop stop-color="white" style="stop-color:white;stop-opacity:1;"/>
<stop offset="1" stop-color="white" stop-opacity="0.25" style="stop-color:white;stop-opacity:0.25;"/>
</linearGradient>
<linearGradient id="paint19_linear_103_295" x1="592.153" y1="-88.0809" x2="208.594" y2="34.9026" gradientUnits="userSpaceOnUse">
<stop stop-color="white" style="stop-color:white;stop-opacity:1;"/>
<stop offset="1" stop-color="white" stop-opacity="0.25" style="stop-color:white;stop-opacity:0.25;"/>
</linearGradient>
<linearGradient id="paint20_linear_103_295" x1="589.589" y1="-90.5075" x2="190.099" y2="37.5824" gradientUnits="userSpaceOnUse">
<stop stop-color="white" style="stop-color:white;stop-opacity:1;"/>
<stop offset="1" stop-color="white" stop-opacity="0.25" style="stop-color:white;stop-opacity:0.25;"/>
</linearGradient>
<linearGradient id="paint21_linear_103_295" x1="587.035" y1="-92.9389" x2="171.6" y2="40.262" gradientUnits="userSpaceOnUse">
<stop stop-color="white" style="stop-color:white;stop-opacity:1;"/>
<stop offset="1" stop-color="white" stop-opacity="0.25" style="stop-color:white;stop-opacity:0.25;"/>
</linearGradient>
</defs>
</svg>
