<svg width="699" height="490" viewBox="0 0 699 490" fill="none" xmlns="http://www.w3.org/2000/svg">
<g opacity="0.2">
<path d="M278.873 816.226C333.157 681.673 331.844 579.817 318.607 509.103C307.569 450.152 292.713 436.76 292.128 384.844C290.862 272.185 358.436 123.519 459.333 116.834C509.036 113.541 530.22 152.715 600.416 195.668C663.563 234.307 763.709 273.662 920.982 266.206" stroke="url(#paint0_linear_103_122)" stroke-miterlimit="10"/>
<path d="M266.409 803.9C323.649 677.283 324.895 578.887 314.356 510.79C305.478 453.484 294.142 438.643 295.609 385.501C298.686 274.023 361.355 133.645 459.042 123.735C509.357 118.628 533.381 153.812 605.505 194.429C669.002 230.186 768.501 267.764 923.709 261.054" stroke="url(#paint1_linear_103_122)" stroke-miterlimit="10"/>
<path d="M253.946 791.575C314.139 672.894 317.971 577.906 310.11 512.472C303.412 456.728 295.525 440.569 299.095 386.153C306.325 275.926 364.347 143.522 458.757 130.626C509.76 123.662 536.473 154.921 610.598 193.18C674.382 226.098 773.294 261.853 926.438 255.882" stroke="url(#paint2_linear_103_122)" stroke-miterlimit="10"/>
<path d="M241.482 779.248C304.628 668.503 311.083 576.863 305.853 514.144C301.345 459.907 296.848 442.534 302.59 386.8C313.785 277.875 367.393 153.148 458.477 137.516C510.226 128.631 539.499 156.05 615.698 191.928C679.691 222.061 778.093 255.937 929.166 250.722" stroke="url(#paint3_linear_103_122)" stroke-miterlimit="10"/>
<path d="M229.019 766.922C295.13 664.108 304.254 575.759 301.616 515.833C299.294 463.013 298.127 444.514 306.066 387.461C321.052 279.88 370.455 162.546 458.182 144.42C510.741 133.559 542.447 157.232 620.783 190.691C684.932 218.089 782.88 250.036 931.876 245.562" stroke="url(#paint4_linear_103_122)" stroke-miterlimit="10"/>
<path d="M216.556 754.597C285.613 659.725 297.484 574.59 297.37 517.515C297.266 466.035 299.32 446.533 309.554 388.115C328.158 281.896 373.543 171.704 457.894 151.315C511.304 138.407 545.328 158.461 625.877 189.446C690.125 214.17 787.672 244.127 934.613 240.41" stroke="url(#paint5_linear_103_122)" stroke-miterlimit="10"/>
<path d="M204.093 742.271C276.112 655.344 290.806 573.361 293.123 519.196C295.271 468.975 300.456 448.555 313.039 388.769C335.109 283.919 376.631 180.64 457.608 158.212C511.895 143.177 548.174 159.728 630.968 188.199C695.273 210.312 792.471 238.21 937.338 235.25" stroke="url(#paint6_linear_103_122)" stroke-miterlimit="10"/>
<path d="M191.634 729.937C266.601 650.942 284.235 572.06 288.883 520.871C293.336 471.824 301.537 450.565 316.53 389.416C341.918 285.931 379.715 189.358 457.328 165.102C512.511 147.854 550.965 161.059 636.068 186.947C700.375 206.518 797.251 232.303 940.066 230.089" stroke="url(#paint7_linear_103_122)" stroke-miterlimit="10"/>
<path d="M179.164 717.618C257.084 646.559 277.776 570.718 284.628 522.558C291.461 474.598 302.513 452.585 320.011 390.076C348.589 287.933 382.764 197.89 457.033 172.004C513.123 152.448 553.704 162.479 641.155 185.709C705.449 202.786 802.05 226.4 942.803 224.92" stroke="url(#paint8_linear_103_122)" stroke-miterlimit="10"/>
<path d="M166.706 705.297C247.58 642.173 271.471 569.333 280.387 524.245C289.669 477.312 303.458 454.603 323.501 390.735C355.142 289.921 385.782 206.251 456.751 178.906C513.727 156.952 556.422 163.973 646.254 184.469C710.501 199.125 806.849 220.494 945.526 219.775" stroke="url(#paint9_linear_103_122)" stroke-miterlimit="10"/>
<path d="M154.235 692.963C238.073 637.769 265.314 567.906 276.138 525.92C287.986 479.95 304.319 456.579 326.985 391.383C361.585 291.859 388.747 214.433 456.458 185.796C514.3 161.335 559.104 165.542 651.343 183.218C715.521 195.518 811.636 214.579 948.246 214.605" stroke="url(#paint10_linear_103_122)" stroke-miterlimit="10"/>
<path d="M141.771 680.637C228.556 633.39 259.332 566.476 271.891 527.602C286.44 482.56 305.124 458.526 330.47 392.037C367.939 293.763 391.666 222.474 456.172 192.694C514.837 165.609 561.776 167.204 656.435 181.971C720.538 191.974 816.43 208.671 950.974 209.447" stroke="url(#paint11_linear_103_122)" stroke-miterlimit="10"/>
<path d="M129.305 668.308C219.045 629 253.522 565.064 267.643 529.282C285.053 485.167 305.852 460.457 333.956 392.689C374.211 295.623 394.52 230.386 455.887 199.59C515.311 169.769 564.439 168.954 661.529 180.726C725.549 188.489 821.222 202.762 953.702 204.287" stroke="url(#paint12_linear_103_122)" stroke-miterlimit="10"/>
<path d="M116.841 655.982C209.536 624.609 247.883 563.691 263.396 530.964C283.85 487.814 306.527 462.343 337.439 393.348C380.41 297.443 397.312 238.198 455.595 206.489C515.716 173.794 567.1 170.805 666.619 179.485C730.564 185.059 826.019 196.857 956.423 199.122" stroke="url(#paint13_linear_103_122)" stroke-miterlimit="10"/>
<path d="M104.377 643.655C200.027 620.221 242.401 562.389 259.142 532.654C282.844 490.561 307.139 464.195 340.923 394.004C386.55 299.209 400.011 245.901 455.305 213.39C516.022 177.692 569.772 172.746 671.714 178.248C735.584 181.693 830.808 190.955 959.155 193.979" stroke="url(#paint14_linear_103_122)" stroke-miterlimit="10"/>
<path d="M91.9104 631.326C190.524 615.822 237.056 561.183 254.902 534.329C282.067 493.452 307.708 465.991 344.416 394.653C392.637 300.914 402.647 253.522 455.023 220.28C516.223 181.443 572.462 174.765 676.808 176.989C740.624 178.35 835.602 185.033 961.882 188.806" stroke="url(#paint15_linear_103_122)" stroke-miterlimit="10"/>
<path d="M79.4544 618.99C181.013 611.432 225.717 553.774 250.662 536.001C291.467 506.932 308.229 467.736 347.911 395.296C398.699 302.572 405.188 261.088 454.737 227.178C516.277 185.053 575.186 176.894 681.902 175.744C745.673 175.059 840.394 179.123 964.603 183.638" stroke="url(#paint16_linear_103_122)" stroke-miterlimit="10"/>
<path d="M66.992 606.672C171.504 607.051 221.896 553.651 246.416 537.694C289.392 509.725 308.693 469.456 351.396 395.963C404.72 304.175 407.632 268.618 454.458 234.082C516.187 188.535 577.94 179.11 687.004 174.51C750.756 171.818 845.195 173.225 967.342 178.495" stroke="url(#paint17_linear_103_122)" stroke-miterlimit="10"/>
<path d="M54.5389 594.346C162.007 602.665 218.046 553.963 242.18 539.379C287.229 512.155 309.123 471.118 354.886 396.615C410.721 305.736 409.987 276.129 454.169 240.979C515.907 191.864 580.726 181.406 692.092 173.263C755.848 168.6 849.984 167.315 970.06 173.332" stroke="url(#paint18_linear_103_122)" stroke-miterlimit="10"/>
<path d="M42.0871 582.021C152.507 598.278 216.187 557.865 237.946 541.063C280.792 507.957 309.518 472.728 358.385 397.276C416.709 307.242 412.246 283.637 453.896 247.887C515.441 195.072 583.574 183.802 697.203 172.032C760.993 165.427 854.788 161.416 972.799 168.188" stroke="url(#paint19_linear_103_122)" stroke-miterlimit="10"/>
<path d="M29.6358 569.696C143.008 593.89 210.87 557.449 233.707 542.749C280.657 512.523 309.871 474.29 361.88 397.939C422.677 308.7 414.389 291.156 453.617 254.795C514.741 198.134 586.449 186.249 702.293 170.794C766.151 162.276 859.577 155.515 975.522 163.032" stroke="url(#paint20_linear_103_122)" stroke-miterlimit="10"/>
<path d="M17.1826 557.37C133.51 589.501 205.389 557.196 229.471 544.434C280.432 517.434 310.194 475.8 365.379 398.6C428.641 310.104 416.43 298.704 453.342 261.7C513.816 201.089 589.385 188.779 707.396 169.558C771.34 159.141 864.378 149.619 978.256 157.883" stroke="url(#paint21_linear_103_122)" stroke-miterlimit="10"/>
</g>
<defs>
<linearGradient id="paint0_linear_103_122" x1="292.041" y1="245.89" x2="628.075" y2="569.942" gradientUnits="userSpaceOnUse">
<stop stop-color="white" style="stop-color:white;stop-opacity:1;"/>
<stop offset="1" stop-color="white" stop-opacity="0.25" style="stop-color:white;stop-opacity:0.25;"/>
</linearGradient>
<linearGradient id="paint1_linear_103_122" x1="299.149" y1="248.638" x2="628.966" y2="566.695" gradientUnits="userSpaceOnUse">
<stop stop-color="white" style="stop-color:white;stop-opacity:1;"/>
<stop offset="1" stop-color="white" stop-opacity="0.25" style="stop-color:white;stop-opacity:0.25;"/>
</linearGradient>
<linearGradient id="paint2_linear_103_122" x1="306.203" y1="251.323" x2="629.854" y2="563.433" gradientUnits="userSpaceOnUse">
<stop stop-color="white" style="stop-color:white;stop-opacity:1;"/>
<stop offset="1" stop-color="white" stop-opacity="0.25" style="stop-color:white;stop-opacity:0.25;"/>
</linearGradient>
<linearGradient id="paint3_linear_103_122" x1="313.188" y1="253.949" x2="630.743" y2="560.18" gradientUnits="userSpaceOnUse">
<stop stop-color="white" style="stop-color:white;stop-opacity:1;"/>
<stop offset="1" stop-color="white" stop-opacity="0.25" style="stop-color:white;stop-opacity:0.25;"/>
</linearGradient>
<linearGradient id="paint4_linear_103_122" x1="320.099" y1="256.513" x2="631.619" y2="556.923" gradientUnits="userSpaceOnUse">
<stop stop-color="white" style="stop-color:white;stop-opacity:1;"/>
<stop offset="1" stop-color="white" stop-opacity="0.25" style="stop-color:white;stop-opacity:0.25;"/>
</linearGradient>
<linearGradient id="paint5_linear_103_122" x1="326.943" y1="259.003" x2="632.517" y2="553.679" gradientUnits="userSpaceOnUse">
<stop stop-color="white" style="stop-color:white;stop-opacity:1;"/>
<stop offset="1" stop-color="white" stop-opacity="0.25" style="stop-color:white;stop-opacity:0.25;"/>
</linearGradient>
<linearGradient id="paint6_linear_103_122" x1="333.713" y1="261.424" x2="633.403" y2="550.426" gradientUnits="userSpaceOnUse">
<stop stop-color="white" style="stop-color:white;stop-opacity:1;"/>
<stop offset="1" stop-color="white" stop-opacity="0.25" style="stop-color:white;stop-opacity:0.25;"/>
</linearGradient>
<linearGradient id="paint7_linear_103_122" x1="340.413" y1="263.77" x2="634.295" y2="547.17" gradientUnits="userSpaceOnUse">
<stop stop-color="white" style="stop-color:white;stop-opacity:1;"/>
<stop offset="1" stop-color="white" stop-opacity="0.25" style="stop-color:white;stop-opacity:0.25;"/>
</linearGradient>
<linearGradient id="paint8_linear_103_122" x1="347.037" y1="266.047" x2="635.184" y2="543.917" gradientUnits="userSpaceOnUse">
<stop stop-color="white" style="stop-color:white;stop-opacity:1;"/>
<stop offset="1" stop-color="white" stop-opacity="0.25" style="stop-color:white;stop-opacity:0.25;"/>
</linearGradient>
<linearGradient id="paint9_linear_103_122" x1="353.588" y1="268.267" x2="636.073" y2="540.675" gradientUnits="userSpaceOnUse">
<stop stop-color="white" style="stop-color:white;stop-opacity:1;"/>
<stop offset="1" stop-color="white" stop-opacity="0.25" style="stop-color:white;stop-opacity:0.25;"/>
</linearGradient>
<linearGradient id="paint10_linear_103_122" x1="360.063" y1="270.402" x2="636.952" y2="537.414" gradientUnits="userSpaceOnUse">
<stop stop-color="white" style="stop-color:white;stop-opacity:1;"/>
<stop offset="1" stop-color="white" stop-opacity="0.25" style="stop-color:white;stop-opacity:0.25;"/>
</linearGradient>
<linearGradient id="paint11_linear_103_122" x1="366.473" y1="272.477" x2="637.841" y2="534.165" gradientUnits="userSpaceOnUse">
<stop stop-color="white" style="stop-color:white;stop-opacity:1;"/>
<stop offset="1" stop-color="white" stop-opacity="0.25" style="stop-color:white;stop-opacity:0.25;"/>
</linearGradient>
<linearGradient id="paint12_linear_103_122" x1="372.815" y1="274.486" x2="638.729" y2="530.913" gradientUnits="userSpaceOnUse">
<stop stop-color="white" style="stop-color:white;stop-opacity:1;"/>
<stop offset="1" stop-color="white" stop-opacity="0.25" style="stop-color:white;stop-opacity:0.25;"/>
</linearGradient>
<linearGradient id="paint13_linear_103_122" x1="379.093" y1="276.435" x2="639.61" y2="527.658" gradientUnits="userSpaceOnUse">
<stop stop-color="white" style="stop-color:white;stop-opacity:1;"/>
<stop offset="1" stop-color="white" stop-opacity="0.25" style="stop-color:white;stop-opacity:0.25;"/>
</linearGradient>
<linearGradient id="paint14_linear_103_122" x1="385.296" y1="278.318" x2="640.504" y2="524.42" gradientUnits="userSpaceOnUse">
<stop stop-color="white" style="stop-color:white;stop-opacity:1;"/>
<stop offset="1" stop-color="white" stop-opacity="0.25" style="stop-color:white;stop-opacity:0.25;"/>
</linearGradient>
<linearGradient id="paint15_linear_103_122" x1="391.44" y1="280.132" x2="641.387" y2="521.16" gradientUnits="userSpaceOnUse">
<stop stop-color="white" style="stop-color:white;stop-opacity:1;"/>
<stop offset="1" stop-color="white" stop-opacity="0.25" style="stop-color:white;stop-opacity:0.25;"/>
</linearGradient>
<linearGradient id="paint16_linear_103_122" x1="397.519" y1="281.88" x2="642.271" y2="517.898" gradientUnits="userSpaceOnUse">
<stop stop-color="white" style="stop-color:white;stop-opacity:1;"/>
<stop offset="1" stop-color="white" stop-opacity="0.25" style="stop-color:white;stop-opacity:0.25;"/>
</linearGradient>
<linearGradient id="paint17_linear_103_122" x1="390.556" y1="271.135" x2="643.134" y2="514.7" gradientUnits="userSpaceOnUse">
<stop stop-color="white" style="stop-color:white;stop-opacity:1;"/>
<stop offset="1" stop-color="white" stop-opacity="0.25" style="stop-color:white;stop-opacity:0.25;"/>
</linearGradient>
<linearGradient id="paint18_linear_103_122" x1="379.955" y1="256.889" x2="643.971" y2="511.486" gradientUnits="userSpaceOnUse">
<stop stop-color="white" style="stop-color:white;stop-opacity:1;"/>
<stop offset="1" stop-color="white" stop-opacity="0.25" style="stop-color:white;stop-opacity:0.25;"/>
</linearGradient>
<linearGradient id="paint19_linear_103_122" x1="369.354" y1="242.646" x2="644.828" y2="508.292" gradientUnits="userSpaceOnUse">
<stop stop-color="white" style="stop-color:white;stop-opacity:1;"/>
<stop offset="1" stop-color="white" stop-opacity="0.25" style="stop-color:white;stop-opacity:0.25;"/>
</linearGradient>
<linearGradient id="paint20_linear_103_122" x1="358.753" y1="228.403" x2="645.671" y2="505.086" gradientUnits="userSpaceOnUse">
<stop stop-color="white" style="stop-color:white;stop-opacity:1;"/>
<stop offset="1" stop-color="white" stop-opacity="0.25" style="stop-color:white;stop-opacity:0.25;"/>
</linearGradient>
<linearGradient id="paint21_linear_103_122" x1="348.152" y1="214.158" x2="646.524" y2="501.887" gradientUnits="userSpaceOnUse">
<stop stop-color="white" style="stop-color:white;stop-opacity:1;"/>
<stop offset="1" stop-color="white" stop-opacity="0.25" style="stop-color:white;stop-opacity:0.25;"/>
</linearGradient>
</defs>
</svg>
